<svg width="65" height="65" viewBox="0 0 65 65" fill="none" xmlns="http://www.w3.org/2000/svg">
<g clip-path="url(#clip0_407_975)">
<path d="M1.45417 32.345C1.44532 28.2445 2.24644 24.1827 3.81155 20.3926C5.37666 16.6025 7.67493 13.1589 10.5744 10.2594C13.4739 7.35987 16.9176 5.0616 20.7076 3.49649C24.4977 1.93138 28.5596 1.13026 32.6601 1.13911C36.7606 1.13026 40.8225 1.93138 44.6126 3.49649C48.4026 5.0616 51.8463 7.35987 54.7458 10.2594C57.6453 13.1589 59.9435 16.6025 61.5087 20.3926C63.0738 24.1827 63.8749 28.2445 63.866 32.345C63.8749 36.4455 63.0738 40.5074 61.5087 44.2975C59.9435 48.0876 57.6453 51.5312 54.7458 54.4307C51.8463 57.3302 48.4026 59.6285 44.6126 61.1936C40.8225 62.7587 36.7606 63.5598 32.6601 63.551C28.5596 63.5598 24.4977 62.7587 20.7076 61.1936C16.9176 59.6285 13.4739 57.3302 10.5744 54.4307C7.67493 51.5312 5.37666 48.0876 3.81155 44.2975C2.24644 40.5074 1.44532 36.4455 1.45417 32.345Z" fill="white"/>
<path d="M46.2123 3.93779C42.1076 1.98697 37.5154 0.89502 32.668 0.89502C24.2121 0.89502 16.5328 4.21749 10.8629 9.62825C4.83507 15.3804 56.8813 9.0088 46.2123 3.93779Z" fill="#FCC397"/>
<path d="M57.3805 12.7737C57.4168 12.8187 54.8039 16.3103 46.9524 17.3019C31.1041 19.3025 3.89622 19.5142 3.9373 19.4241C5.61234 15.7484 7.97514 12.4271 10.8983 9.63926C14.3179 10.7067 18.0394 10.973 21.5602 10.3243C27.3732 9.26079 32.5453 5.90198 38.295 4.53348C40.8471 3.92035 43.6276 3.74099 46.2468 3.94958C50.5781 6.01112 54.3851 9.02849 57.3813 12.7745L57.3805 12.7737Z" fill="#FC9F95"/>
<path d="M63.8565 27.5522C63.8762 27.6794 28.1192 31.0406 10.6977 30.0608C5.02071 29.7416 1.67138 26.3101 1.7093 26.1228C2.18195 23.8174 2.91267 21.5725 3.88767 19.4305C8.92076 16.6753 14.8427 15.0856 20.5846 15.148C27.785 15.2215 34.8494 17.6227 42.0498 17.4433C47.3974 17.3074 52.7876 15.6008 57.3308 12.78C60.6794 16.9653 62.9865 22.0205 63.8565 27.5522Z" fill="#F77C88"/>
<path d="M64.1417 32.3222L64.1377 32.846C64.1377 32.846 54.2059 35.3507 41.4153 35.2014C23.5001 34.9928 0.965763 32.1033 0.966553 32.0504C0.982874 29.9933 1.19933 27.9428 1.61287 25.9277C5.90482 28.5762 11.1102 29.8728 16.1203 29.3276C20.1041 28.8962 23.8888 27.4218 27.5779 25.8526C31.267 24.2834 34.9363 22.5989 38.8364 21.6934C44.6131 20.3732 50.6537 20.8244 56.1701 22.9884C58.8344 24.0393 61.4782 25.55 63.7553 27.3713C64.0089 28.9847 64.1409 30.6384 64.1409 32.323L64.1417 32.3222Z" fill="#F25192"/>
<path d="M28.319 42.5883C18.8415 44.3384 2.57761 42.3197 2.53732 42.1948C1.51806 39.0912 0.966553 35.7759 0.966553 32.3317L0.967343 32.0591C2.40616 30.9182 4.08675 29.9013 5.72705 29.1104C9.78433 27.1414 14.3892 26.3204 18.8771 26.7621C23.3128 27.2046 27.5495 28.8473 31.6486 30.6156C35.1023 32.1057 38.5338 33.716 42.1193 34.8285C42.4702 34.9375 38.7503 40.6612 28.3183 42.5875L28.319 42.5883Z" fill="#D34CA3"/>
<path d="M63.0417 40.8413C62.3796 41.9586 56.0863 45.7235 47.5545 46.3683C36.2581 47.2216 22.9137 43.8075 27.34 42.07C34.3097 39.3322 40.3533 34.4153 47.5545 32.3617C52.9337 30.821 58.8967 31.0644 64.1771 32.9267C64.1354 35.6023 63.7539 38.2619 63.0417 40.8413Z" fill="#9A50A5"/>
<path d="M60.1098 48.0868C54.6556 57.5564 15.0957 59.9315 9.31669 53.5615C6.33879 50.2828 4.08441 46.414 2.7002 42.2067C7.55866 39.4302 13.2452 38.2505 18.7113 38.998C25.786 39.9667 32.1244 43.9149 39.1043 45.4525C44.7719 46.692 50.6741 46.3089 56.1339 44.3471C58.5856 43.4551 61.0168 42.2596 63.1668 40.7813C62.4602 43.3357 61.433 45.7904 60.1098 48.0868Z" fill="#59569E"/>
<path d="M59.9785 47.9547C54.5353 57.4678 44.2874 63.8789 32.5415 63.8789C23.2615 63.8789 14.9162 59.8769 9.13721 53.5053C10.0964 53.872 11.1686 54.1888 12.1523 54.4661C17.65 55.9824 23.568 55.9405 29.0341 54.3294C32.5343 53.2975 35.8244 51.6549 39.2622 50.4128C45.8218 48.0472 53.0412 47.2144 59.9793 47.9555L59.9785 47.9547Z" fill="#39477F"/>
</g>
<defs>
<clipPath id="clip0_407_975">
<rect width="64" height="64" fill="white" transform="translate(0.571533 0.5)"/>
</clipPath>
</defs>
</svg>
