<svg width="65" height="65" viewBox="0 0 65 65" fill="none" xmlns="http://www.w3.org/2000/svg">
<path d="M58.1122 12.9415C54.2437 7.93199 48.9764 4.18225 42.9767 2.16648C36.9769 0.150713 30.5141 -0.0405291 24.4056 1.61694C18.2971 3.27441 12.8174 6.70614 8.6594 11.4781C4.50141 16.2501 1.85194 22.1479 1.04609 28.4258C0.24024 34.7036 1.3142 41.0794 4.13214 46.7469C6.95009 52.4143 11.3854 57.1188 16.8772 60.2653C22.369 63.4118 28.6706 64.8591 34.985 64.424C41.2994 63.989 47.3429 61.6911 52.3513 57.8211C66.3312 47.0172 68.9111 26.9264 58.1112 12.9415H58.1122Z" fill="#FF6C37"/>
<path d="M43.5782 20.8895L30.0854 34.4894L26.2725 30.5694C39.5523 17.2895 40.8853 18.4895 43.5792 20.8895H43.5782Z" fill="white"/>
<path d="M30.0853 34.8613C29.9658 34.8584 29.8517 34.8109 29.7653 34.7283L25.9253 30.8883C25.8389 30.7989 25.7905 30.6793 25.7905 30.5548C25.7905 30.4304 25.8389 30.3108 25.9253 30.2214C39.0182 17.1285 40.8052 17.7415 43.8981 20.5414C43.9499 20.5829 43.9914 20.6358 44.0191 20.696C44.0469 20.7563 44.0603 20.8221 44.0581 20.8884C44.0781 21.0184 44.0281 21.1514 43.9251 21.2354L30.4323 34.7293C30.3377 34.8161 30.2136 34.8636 30.0853 34.8623V34.8613ZM26.9383 30.5683L30.0853 33.7153L42.8852 20.9154C42.4432 20.3616 41.8126 19.9901 41.1139 19.872C40.4153 19.7539 39.6976 19.8976 39.0982 20.2754C36.7782 21.3154 33.0452 24.4884 26.9383 30.5683V30.5683Z" fill="#FF6C37"/>
<path d="M33.9522 38.2493L30.2722 34.4893L43.7652 21.1555C47.3922 24.7025 42.0052 30.6224 33.9522 38.2483V38.2493Z" fill="white"/>
<path d="M33.9523 38.7292C33.8343 38.7199 33.7223 38.6733 33.6323 38.5963L29.8724 34.9163C29.816 34.7795 29.816 34.626 29.8724 34.4893C29.8324 34.3771 29.8324 34.2545 29.8724 34.1423L43.3653 20.6495C43.4591 20.5613 43.583 20.5122 43.7118 20.5122C43.8405 20.5122 43.9644 20.5613 44.0583 20.6495C44.4952 21.0516 44.8405 21.5432 45.0705 22.0907C45.3005 22.6382 45.4099 23.2288 45.3913 23.8224C45.3913 27.4224 41.2843 31.9553 34.2983 38.5693C34.205 38.6616 34.0822 38.7182 33.9513 38.7292H33.9523ZM30.9654 34.4893L33.9783 37.5013C39.3113 32.4613 44.4053 27.2614 44.4313 23.7414C44.4603 22.9952 44.2136 22.2644 43.7383 21.6884L30.9654 34.4893Z" fill="#FF6C37"/>
<path d="M26.3786 30.6493L29.0456 33.3163C29.0626 33.3313 29.0762 33.3498 29.0856 33.3705C29.0949 33.3911 29.0997 33.4136 29.0997 33.4363C29.0997 33.459 29.0949 33.4814 29.0856 33.5021C29.0762 33.5228 29.0626 33.5413 29.0456 33.5563L23.4186 34.7563C23.305 34.7808 23.1866 34.7675 23.0812 34.7185C22.9759 34.6694 22.8894 34.5873 22.8351 34.4846C22.7807 34.3819 22.7614 34.2642 22.7801 34.1495C22.7988 34.0348 22.8545 33.9294 22.9386 33.8493L26.2186 30.5963C26.2186 30.5963 26.3256 30.5963 26.3786 30.6493Z" fill="white"/>
<path d="M23.2855 35.2893C23.1077 35.2871 22.9334 35.2393 22.7794 35.1505C22.6253 35.0618 22.4966 34.935 22.4055 34.7823C22.3029 34.5889 22.2657 34.3675 22.2994 34.1512C22.3332 33.9349 22.4359 33.7354 22.5925 33.5823L25.8454 30.3023C25.9627 30.1975 26.1146 30.1395 26.2719 30.1395C26.4293 30.1395 26.5811 30.1975 26.6984 30.3023L29.3654 32.9693C29.5234 33.1193 29.5854 33.3463 29.5254 33.5563C29.4654 33.7663 29.2894 33.9333 29.0724 33.9833L23.4455 35.1833L23.2855 35.2893ZM26.2724 31.2363L23.2595 34.2493L28.2464 33.1823L26.2724 31.2363Z" fill="#FF6C37"/>
<path d="M50.7524 13.3956C48.8224 11.5336 45.7903 11.4556 43.7663 13.2126C41.7423 14.9696 41.3963 17.9855 42.9723 20.1555C44.5483 22.3255 47.5194 22.9335 49.8194 21.5555L46.1924 17.9285L50.7524 13.3956Z" fill="white"/>
<path d="M47.1524 22.7815C46.0435 22.7673 44.9634 22.4271 44.0466 21.8033C43.1297 21.1795 42.4167 20.2997 41.9964 19.2735C41.5764 18.2481 41.4662 17.1221 41.6795 16.0347C41.8927 14.9473 42.4201 13.9463 43.1964 13.1556C44.264 12.1075 45.7003 11.5204 47.1964 11.5204C48.6924 11.5204 50.1287 12.1075 51.1964 13.1556C51.2984 13.2416 51.3564 13.3686 51.3564 13.5026C51.3561 13.5685 51.3417 13.6336 51.3141 13.6935C51.2865 13.7533 51.2464 13.8066 51.1964 13.8496L46.8764 17.9295L50.1564 21.1565C50.2095 21.2073 50.2494 21.2702 50.2726 21.34C50.2958 21.4097 50.3016 21.484 50.2894 21.5565C50.2815 21.6264 50.2583 21.6937 50.2215 21.7537C50.1847 21.8137 50.1351 21.8648 50.0764 21.9035C49.1952 22.4543 48.1822 22.7582 47.1434 22.7835L47.1524 22.7815ZM47.1524 12.4346C45.2524 12.4446 43.5524 13.5876 42.8394 15.3345C42.1264 17.0815 42.5144 19.0925 43.8464 20.4345C44.5089 21.1009 45.3573 21.5517 46.2803 21.7278C47.2033 21.9039 48.158 21.7971 49.0194 21.4215L45.8724 18.2745C45.8224 18.2345 45.782 18.1838 45.7542 18.126C45.7265 18.0683 45.712 18.0051 45.712 17.941C45.712 17.877 45.7265 17.8137 45.7542 17.756C45.782 17.6983 45.8224 17.6475 45.8724 17.6075L50.0324 13.4206C49.2054 12.7868 48.1942 12.4403 47.1524 12.4336V12.4346Z" fill="#FF6C37"/>
<path d="M50.8321 13.4755L46.2722 18.0084L49.8991 21.6354C50.2642 21.4258 50.604 21.1752 50.9121 20.8884C51.8627 19.8836 52.3857 18.5488 52.3708 17.1657C52.3559 15.7827 51.8042 14.4595 50.8321 13.4755V13.4755Z" fill="white"/>
<path d="M49.8182 22.0355C49.7583 22.0388 49.6985 22.0285 49.6431 22.0055C49.5877 21.9825 49.5382 21.9473 49.4982 21.9025L45.8713 18.2756C45.8212 18.2356 45.7809 18.1848 45.7531 18.1271C45.7253 18.0693 45.7109 18.0061 45.7109 17.9421C45.7109 17.878 45.7253 17.8148 45.7531 17.757C45.7809 17.6993 45.8212 17.6486 45.8713 17.6086L50.4042 13.1556C50.448 13.0896 50.5075 13.0354 50.5773 12.998C50.6471 12.9605 50.725 12.9409 50.8042 12.9409C50.8834 12.9409 50.9614 12.9605 51.0312 12.998C51.101 13.0354 51.1604 13.0896 51.2042 13.1556C51.7364 13.677 52.1592 14.2993 52.4478 14.9862C52.7364 15.673 52.885 16.4105 52.885 17.1556C52.885 17.9006 52.7364 18.6381 52.4478 19.3249C52.1592 20.0118 51.7364 20.6341 51.2042 21.1555C50.8903 21.4885 50.5311 21.7756 50.1372 22.0085C50.0381 22.0585 49.9234 22.0682 49.8172 22.0355H49.8182ZM46.8853 17.9296L49.8982 20.9425C50.1055 20.7973 50.3017 20.6368 50.4852 20.4625C51.371 19.5792 51.8698 18.3805 51.8722 17.1296C51.8743 16.0101 51.4662 14.9287 50.7252 14.0896L46.8853 17.9296Z" fill="#FF6C37"/>
<path d="M44.1385 21.4495C43.7773 21.1103 43.3004 20.9215 42.805 20.9215C42.3095 20.9215 41.8327 21.1103 41.4715 21.4495L29.3926 33.5014L31.3926 35.5284L44.1655 24.3285C44.3603 24.1418 44.5148 23.9172 44.6195 23.6685C44.7242 23.4199 44.7769 23.1524 44.7744 22.8826C44.7719 22.6128 44.7142 22.3464 44.6048 22.0998C44.4954 21.8531 44.3367 21.6315 44.1385 21.4485V21.4495Z" fill="white"/>
<path d="M31.2855 36.0093C31.166 36.0064 31.0519 35.959 30.9655 35.8763L28.9385 33.8493C28.852 33.7599 28.8037 33.6403 28.8037 33.5158C28.8037 33.3914 28.852 33.2718 28.9385 33.1824L41.0184 21.1555C41.3663 20.8079 41.8106 20.573 42.2937 20.481C42.7768 20.3891 43.2764 20.4444 43.7277 20.6398C44.1789 20.8352 44.5611 21.1617 44.8246 21.5769C45.0881 21.9921 45.2207 22.4769 45.2053 22.9684C45.1915 23.3021 45.1112 23.6296 44.9692 23.9318C44.8272 24.234 44.6263 24.5048 44.3784 24.7284L31.6055 35.9283C31.5126 35.9941 31.3984 36.0226 31.2855 36.0083V36.0093ZM29.8725 33.5013L31.2055 34.8613L43.7384 23.9544C44.0484 23.6844 44.2334 23.2984 44.2454 22.8874C44.2574 22.4764 44.0954 22.0745 43.7924 21.7945C43.5126 21.5158 43.1337 21.3594 42.7389 21.3594C42.344 21.3594 41.9652 21.5158 41.6854 21.7945L29.8725 33.5013Z" fill="#FF6C37"/>
<path d="M20.0326 47.2353C19.9984 47.2816 19.98 47.3377 19.98 47.3953C19.98 47.4528 19.9984 47.5089 20.0326 47.5553L20.5655 49.8752C20.5869 50.0118 20.5667 50.1516 20.5074 50.2764C20.4482 50.4013 20.3528 50.5054 20.2336 50.5752C20.1147 50.6447 19.977 50.6747 19.84 50.6609C19.7031 50.647 19.5741 50.5901 19.4716 50.4982L15.8186 46.9783L27.2055 35.5013H31.1524L33.8194 38.1683C29.6591 41.8057 25.0204 44.8564 20.0326 47.2353V47.2353Z" fill="white"/>
<path d="M19.7924 51.1552C19.4904 51.1492 19.1924 51.0252 18.9924 50.8082L15.4995 47.3152C15.4494 47.2752 15.409 47.2245 15.3813 47.1667C15.3535 47.109 15.3391 47.0458 15.3391 46.9817C15.3391 46.9177 15.3535 46.8544 15.3813 46.7967C15.409 46.739 15.4494 46.6882 15.4995 46.6482L26.9654 35.1553C27.0296 35.0871 27.1135 35.0406 27.2053 35.0223H31.1783C31.2818 34.9857 31.3948 34.9857 31.4983 35.0223L34.1653 37.6893C34.216 37.7361 34.2546 37.7944 34.2778 37.8594C34.3009 37.9244 34.308 37.994 34.2983 38.0623C34.3002 38.1286 34.2867 38.1944 34.2589 38.2545C34.2312 38.3147 34.1899 38.3677 34.1383 38.4093L33.9253 38.5963C29.7482 42.0786 25.1527 45.0257 20.2454 47.3692L20.7524 49.5292C20.7916 49.6958 20.7931 49.8691 20.7568 50.0364C20.7205 50.2037 20.6473 50.3607 20.5426 50.4961C20.4378 50.6315 20.3042 50.7418 20.1514 50.819C19.9986 50.8962 19.8305 50.9382 19.6594 50.9422L19.7924 51.1552ZM16.5394 46.9682L19.6854 50.1412C19.7147 50.1673 19.7526 50.1818 19.7919 50.1818C19.8312 50.1818 19.8691 50.1673 19.8984 50.1412C19.918 50.114 19.9286 50.0813 19.9286 50.0477C19.9286 50.0141 19.918 49.9814 19.8984 49.9542L19.3654 47.6342C19.3234 47.4677 19.3403 47.2918 19.4132 47.1363C19.4861 46.9809 19.6105 46.8554 19.7654 46.7812C24.5408 44.469 29.0178 41.5856 33.0983 38.1943L30.9113 36.0073H27.3383L16.5394 46.9682Z" fill="#FF6C37"/>
<path d="M13.0726 49.7152L15.7395 47.0482L19.8465 51.1552L13.3136 50.7022C13.2014 50.6934 13.0949 50.6494 13.0092 50.5765C12.9235 50.5035 12.863 50.4054 12.8364 50.2961C12.8098 50.1868 12.8184 50.0719 12.861 49.9677C12.9036 49.8636 12.978 49.7755 13.0736 49.7162L13.0726 49.7152Z" fill="white"/>
<path d="M19.9253 51.5553L13.4184 51.1023C13.0324 51.0663 12.7004 50.8023 12.5644 50.4493C12.4284 50.0963 12.5114 49.6773 12.7784 49.3953L15.4454 46.7283C15.5349 46.6418 15.6545 46.5935 15.7789 46.5935C15.9033 46.5935 16.0229 46.6418 16.1124 46.7283L20.1923 50.8083C20.2488 50.8856 20.2793 50.979 20.2793 51.0748C20.2793 51.1706 20.2488 51.2639 20.1923 51.3413C20.1307 51.441 20.0363 51.5163 19.9253 51.5543V51.5553ZM13.4184 50.0623L18.7514 50.4093L15.8184 47.6623L13.4184 50.0623Z" fill="#FF6C37"/>
<path d="M31.5253 35.8233L26.1384 36.6503L29.2584 33.5574L31.5253 35.8233Z" fill="white"/>
<path d="M26.1384 37.1553C26.0489 37.1576 25.9607 37.1336 25.8847 37.0861C25.8088 37.0386 25.7485 36.9698 25.7114 36.8883C25.6546 36.811 25.624 36.7177 25.624 36.6218C25.624 36.5259 25.6546 36.4325 25.7114 36.3553L28.8044 33.2353C28.8982 33.1471 29.0221 33.098 29.1509 33.098C29.2796 33.098 29.4035 33.1471 29.4973 33.2353L31.7653 35.5013C31.8106 35.5731 31.8346 35.6563 31.8346 35.7413C31.8346 35.8262 31.8106 35.9094 31.7653 35.9813C31.7431 36.0689 31.696 36.1482 31.6299 36.2097C31.5637 36.2712 31.4813 36.3124 31.3923 36.3283L26.0594 37.1553H26.1384ZM29.2584 34.2483L27.5254 35.9813L30.5123 35.5283L29.2584 34.2483Z" fill="#FF6C37"/>
<path d="M31.5254 35.8215L27.7654 36.3015C27.6648 36.3243 27.5595 36.3141 27.4651 36.2724C27.3708 36.2307 27.2924 36.1597 27.2415 36.0699C27.1907 35.9801 27.1701 35.8763 27.1829 35.7739C27.1957 35.6715 27.2411 35.576 27.3124 35.5015L29.2594 33.5544L31.5254 35.8215Z" fill="white"/>
<path d="M27.6582 36.8094C27.4839 36.8077 27.3132 36.7599 27.1634 36.6709C27.0136 36.5818 26.89 36.4547 26.8052 36.3024C26.7034 36.1198 26.6639 35.909 26.6928 35.702C26.7217 35.495 26.8173 35.3031 26.9652 35.1554L28.9122 33.2084C29.006 33.1202 29.13 33.0711 29.2587 33.0711C29.3875 33.0711 29.5114 33.1202 29.6052 33.2084L31.8722 35.4754C31.9396 35.5392 31.987 35.6213 32.0088 35.7116C32.0305 35.8019 32.0255 35.8966 31.9945 35.9841C31.9635 36.0716 31.9077 36.1483 31.834 36.2048C31.7603 36.2613 31.6718 36.2952 31.5792 36.3024L27.8462 36.7824L27.6582 36.8094ZM27.6582 35.8224L30.4852 35.4754L29.2322 34.2224L27.6322 35.8224H27.6582ZM50.858 16.5425C50.8078 16.4583 50.7284 16.3956 50.635 16.3661C50.5415 16.3366 50.4405 16.3424 50.351 16.3825C50.3069 16.4049 50.2677 16.4359 50.2357 16.4737C50.2038 16.5114 50.1797 16.5553 50.165 16.6025C50.1353 16.6978 50.1447 16.801 50.191 16.8895C50.378 17.2825 50.326 17.7475 50.058 18.0895C50.0247 18.1224 49.9987 18.1619 49.9815 18.2055C49.9642 18.249 49.9563 18.2957 49.958 18.3425C49.959 18.4363 49.9946 18.5264 50.058 18.5955C50.1265 18.6225 50.2026 18.6225 50.271 18.5955C50.3331 18.6111 50.3983 18.6094 50.4595 18.5905C50.5207 18.5716 50.5755 18.5364 50.618 18.4885C50.8376 18.2196 50.9767 17.8942 51.0191 17.5496C51.0616 17.2051 51.0057 16.8556 50.858 16.5415V16.5425Z" fill="#FF6C37"/>
</svg>
