<svg width="64" height="64" viewBox="0 0 64 64" fill="none" xmlns="http://www.w3.org/2000/svg">
<g clip-path="url(#clip0_407_928)">
<path d="M23.7015 49.0731C23.7015 49.0731 21.2558 50.4954 25.442 50.9767C30.5136 51.5552 33.1055 51.4723 38.6944 50.4145C38.6944 50.4145 40.1638 51.3358 42.2158 52.1338C29.6871 57.5034 13.8609 51.8228 23.7015 49.0731Z" fill="#5382A1"/>
<path d="M22.1711 42.0662C22.1711 42.0662 19.428 44.0967 23.6174 44.53C29.0349 45.0889 33.3133 45.1346 40.7165 43.7091C40.7165 43.7091 41.7404 44.7472 43.3506 45.3149C28.2026 49.7443 11.3305 45.6642 22.1711 42.0662Z" fill="#5382A1"/>
<path d="M35.0771 30.18C38.1642 33.7342 34.266 36.9325 34.266 36.9325C34.266 36.9325 42.1046 32.886 38.5047 27.8188C35.1425 23.0933 32.5641 20.7454 46.5223 12.6501C46.5223 12.6501 24.6125 18.1222 35.0771 30.18Z" fill="#E76F00"/>
<path d="M51.6473 54.2559C51.6473 54.2559 53.4572 55.7472 49.6541 56.9009C42.4224 59.0916 19.5548 59.7532 13.2023 56.9881C10.9188 55.9947 15.2011 54.6161 16.5481 54.3268C17.953 54.0222 18.7558 54.0789 18.7558 54.0789C16.2163 52.2899 2.34117 57.5917 11.708 59.1101C37.2525 63.2527 58.2733 57.2446 51.6473 54.2559Z" fill="#5382A1"/>
<path d="M24.878 34.8061C24.878 34.8061 13.2461 37.5688 20.7588 38.5721C23.931 38.9968 30.2545 38.9007 36.1447 38.4072C40.9585 38.0011 45.7921 37.1378 45.7921 37.1378C45.7921 37.1378 44.0947 37.8647 42.8667 38.7032C31.0547 41.8098 8.23617 40.3646 14.8053 37.1869C20.3609 34.5014 24.878 34.8061 24.878 34.8061Z" fill="#5382A1"/>
<path d="M45.744 46.4695C57.7514 40.23 52.1997 34.2339 48.3246 35.0417C47.3748 35.2394 46.9513 35.4107 46.9513 35.4107C46.9513 35.4107 47.3039 34.8583 47.9774 34.6192C55.6435 31.9241 61.5392 42.5682 45.5027 46.784C45.5027 46.7841 45.6885 46.618 45.744 46.4695Z" fill="#5382A1"/>
<path d="M38.5049 -0.421631C38.5049 -0.421631 45.1548 6.23051 32.1977 16.4596C21.8075 24.6651 29.8285 29.3437 32.1934 34.6891C26.1285 29.2171 21.6776 24.4 24.6636 19.9167C29.0463 13.3356 41.188 10.1449 38.5049 -0.421631Z" fill="#E76F00"/>
<path d="M26.0577 63.3772C37.5833 64.115 55.2822 62.9679 55.7014 57.5143C55.7014 57.5143 54.8956 59.5817 46.1761 61.2236C36.3387 63.0748 24.2057 62.8587 17.0095 61.6722C17.0097 61.6721 18.4827 62.8915 26.0577 63.3772Z" fill="#5382A1"/>
</g>
<defs>
<clipPath id="clip0_407_928">
<rect width="64" height="64" fill="white" transform="translate(0 -0.421631)"/>
</clipPath>
</defs>
</svg>
