<svg width="64" height="64" viewBox="0 0 64 64" fill="none" xmlns="http://www.w3.org/2000/svg">
<path fill-rule="evenodd" clip-rule="evenodd" d="M18.27 28.669C18.121 28.2007 18.0358 27.5622 18.0358 26.7746H17.9933V19.878C17.9933 17.5366 17.3973 15.7911 16.2265 14.6417C15.0345 13.4923 13.1827 12.9176 10.6497 12.9176C9.47897 12.9176 8.37212 13.0453 7.32912 13.322C6.28611 13.5774 5.39211 13.8967 4.64711 14.2799C4.34911 14.4289 4.15754 14.5779 4.05111 14.7269C3.94468 14.8759 3.90211 15.1313 3.90211 15.4719V16.5149C3.90211 16.9619 4.05111 17.1747 4.34911 17.1747C4.43426 17.1747 4.54069 17.1534 4.68969 17.1109C4.83869 17.0683 5.09411 16.9831 5.43469 16.8341C6.17969 16.5361 6.94597 16.302 7.73354 16.1104C8.52112 15.9189 9.2874 15.8337 10.0324 15.8337C11.6714 15.8337 12.8208 16.153 13.502 16.8129C14.1618 17.4727 14.5024 18.6009 14.5024 20.2186V21.7724C13.651 21.5809 12.8421 21.4106 12.0545 21.3041C11.267 21.1977 10.522 21.1339 9.79826 21.1339C7.60583 21.1339 5.88169 21.6873 4.58326 22.7941C3.28483 23.901 2.64626 25.3697 2.64626 27.179C2.64626 28.8819 3.1784 30.2442 4.2214 31.2659C5.2644 32.2876 6.69054 32.7984 8.47855 32.7984C10.9903 32.7984 13.0763 31.8193 14.7365 29.861C14.9707 30.3506 15.1835 30.755 15.3964 31.1169C15.6093 31.4574 15.8647 31.798 16.1627 32.1173C16.3755 32.3089 16.5884 32.4153 16.8013 32.4153C16.9715 32.4153 17.1631 32.3514 17.3547 32.2237L18.6957 31.3297C18.9724 31.1169 19.1001 30.904 19.1001 30.6912C19.1001 30.5422 19.0576 30.3719 18.9511 30.2016C18.6531 29.6482 18.4403 29.1373 18.27 28.669ZM11.5863 29.6269C10.82 29.8823 10.0963 30.01 9.39383 30.01C8.41469 30.01 7.66969 29.7546 7.15883 29.2224C6.62669 28.7116 6.37126 27.9666 6.37126 26.9662C6.37126 25.9019 6.71183 25.093 7.41426 24.5183C8.11669 23.9436 9.15969 23.6669 10.5858 23.6669C11.2457 23.6669 11.9055 23.7094 12.5867 23.7946C13.2678 23.8797 13.9277 24.0074 14.545 24.1564V25.0504C14.545 25.7742 14.4598 26.3914 14.3321 26.9023C14.2044 27.4132 13.949 27.8602 13.6084 28.2646C13.0337 28.9032 12.3525 29.3714 11.5863 29.6269Z" fill="#FF9900"/>
<path d="M25.6774 32.096C25.8477 32.245 26.1031 32.3089 26.4863 32.3089H28.3168C28.7 32.3089 28.998 32.245 29.1683 32.096C29.3386 31.947 29.4663 31.6703 29.5727 31.2446L32.8507 17.5366L36.15 31.2659C36.2351 31.6916 36.3841 31.9683 36.5544 32.1173C36.7247 32.2663 37.0014 32.3302 37.4058 32.3302H39.2364C39.5983 32.3302 39.875 32.245 40.0453 32.1173C40.2156 31.9896 40.3646 31.7129 40.4923 31.2872L45.6221 14.8333C45.7073 14.5991 45.7499 14.4289 45.7711 14.3011C45.7742 14.2825 45.7774 14.2643 45.7804 14.2465C45.7982 14.1424 45.8137 14.0515 45.8137 13.9606C45.8137 13.5987 45.6221 13.4284 45.2816 13.4284H43.302C42.9189 13.4284 42.6421 13.5136 42.4719 13.6413C42.3229 13.769 42.1739 14.0457 42.0461 14.4714L38.3637 28.7329L35.0006 14.4714C34.9154 14.067 34.7664 13.769 34.5961 13.6413C34.4258 13.4923 34.1491 13.4284 33.7447 13.4284H32.0418C31.6587 13.4284 31.3607 13.5136 31.1904 13.6413C31.0201 13.769 30.8924 14.0457 30.786 14.4714L27.4654 28.5626L23.8894 14.4714C23.7617 14.067 23.634 13.769 23.4637 13.6413C23.3147 13.4923 23.038 13.4284 22.6336 13.4284H20.5476C20.207 13.4284 20.0367 13.62 20.0367 13.9606C20.0367 14.1096 20.1006 14.3863 20.2283 14.812L25.2304 31.2659C25.3581 31.6703 25.5071 31.9683 25.6774 32.096Z" fill="#FF9900"/>
<path d="M50.5604 32.5004C51.6247 32.7559 52.7316 32.8836 53.8384 32.8836C54.924 32.8836 55.9244 32.7346 56.8823 32.4366C57.7976 32.1599 58.5852 31.7767 59.245 31.2446C59.9049 30.7337 60.4157 30.0952 60.7989 29.3714C61.1607 28.6477 61.3523 27.8176 61.3523 26.9023C61.3523 25.7954 61.033 24.795 60.3732 23.9223C59.7133 23.0496 58.6064 22.3684 57.0739 21.8789L54.0513 20.921C52.9231 20.5591 52.1356 20.1547 51.7099 19.7503C51.2841 19.3459 51.0713 18.835 51.0713 18.239C51.0713 17.3663 51.4119 16.749 52.0717 16.3446C52.7316 15.9401 53.6894 15.7486 54.9027 15.7486C56.414 15.7486 57.7763 16.0253 58.9896 16.5787C59.3514 16.749 59.6282 16.8341 59.7984 16.8341C60.1177 16.8341 60.288 16.6 60.288 16.153V15.1526C60.288 14.8546 60.2242 14.6204 60.0964 14.4501C59.9687 14.2586 59.7559 14.0883 59.4579 13.918C59.245 13.7903 58.947 13.6626 58.5639 13.5349C58.1807 13.4071 57.7763 13.3007 57.3506 13.1943C56.9036 13.1091 56.4566 13.024 55.967 12.9601C55.4987 12.8963 55.0091 12.875 54.5409 12.875C53.6043 12.875 52.7103 12.9814 51.8589 13.2369C51.0074 13.4923 50.2837 13.8541 49.6451 14.3437C49.0066 14.812 48.4957 15.408 48.1126 16.0891C47.7294 16.7703 47.5379 17.5579 47.5379 18.4519C47.5379 19.5587 47.8997 20.6017 48.6021 21.5383C49.3046 22.4961 50.454 23.2199 52.0079 23.7094L55.0943 24.6673C56.1373 25.0079 56.861 25.3697 57.2441 25.7742C57.6273 26.1786 57.8189 26.6682 57.8189 27.2642C57.8189 28.1369 57.4357 28.818 56.712 29.2863C55.9883 29.7546 54.9453 29.9887 53.6043 29.9887C52.7529 29.9887 51.9227 29.9036 51.0713 29.7333C50.2411 29.563 49.4536 29.3076 48.7299 28.9883C48.6545 28.9581 48.5817 28.928 48.5136 28.8997C48.3893 28.8482 48.2802 28.8029 48.1977 28.7754C48.07 28.7329 47.9423 28.7116 47.8146 28.7116C47.4953 28.7116 47.325 28.9244 47.325 29.3714V30.457C47.325 30.6486 47.3676 30.8614 47.4527 31.053C47.5379 31.2446 47.772 31.4574 48.1126 31.649C48.666 31.9683 49.4961 32.245 50.5604 32.5004Z" fill="#FF9900"/>
<path d="M31.9354 51.1467C40.6838 51.1467 50.8584 48.4009 57.8614 43.2284C59.0109 42.377 58.0104 41.0786 56.8397 41.6107C48.9853 44.9313 40.4497 46.549 32.6804 46.549C21.1648 46.549 10.0324 43.3774 1.00724 38.1412C0.219672 37.6729 -0.376328 38.4817 0.28353 39.0777C8.62754 46.6129 19.6748 51.1467 31.9354 51.1467Z" fill="#FF9900"/>
<path d="M52.5826 39.6312C54.8601 39.3544 59.8836 38.7584 60.7776 39.9079C61.6716 41.036 59.7771 45.7827 58.9257 47.89C58.6703 48.5286 59.2237 48.784 59.7984 48.2944C63.5447 45.1442 64.5239 38.5669 63.7576 37.609C62.9913 36.6724 56.414 35.8636 52.4123 38.6733C51.795 39.1203 51.9014 39.7163 52.5826 39.6312Z" fill="#FF9900"/>
</svg>
