<svg width="67" height="65" viewBox="0 0 67 65" fill="none" xmlns="http://www.w3.org/2000/svg">
<path fill-rule="evenodd" clip-rule="evenodd" d="M38.6837 1.56177C38.232 1.56177 37.8125 1.65886 37.4252 1.7883C38.2481 2.33845 38.6999 3.0666 38.9258 3.89183C38.942 4.00509 38.9742 4.086 38.9903 4.19926C39.0065 4.29635 39.0226 4.39344 39.0226 4.49053C39.0872 5.91445 38.6515 6.09244 38.3449 6.93385C37.877 8.01798 38.0061 9.18301 38.5708 10.1215C38.6192 10.2348 38.6837 10.3642 38.7644 10.4775C38.1513 6.3837 41.5558 5.76882 42.185 4.49053C42.2335 3.37404 41.3138 2.62971 40.5877 2.11192C39.8939 1.69122 39.2646 1.56177 38.6837 1.56177ZM43.8147 2.48408C43.7501 2.85624 43.7985 2.75916 43.7824 2.95333C43.7663 3.08278 43.7663 3.24459 43.7502 3.37404C43.718 3.50348 43.6856 3.63293 43.6373 3.76238C43.605 3.89183 43.5566 4.02128 43.5082 4.15072C43.4436 4.28018 43.3952 4.39344 43.3307 4.52288C43.2823 4.58764 43.25 4.65233 43.2016 4.71706C43.1694 4.7656 43.137 4.81414 43.1048 4.86269C43.0241 4.97596 42.9434 5.08922 42.8628 5.1863C42.766 5.28339 42.6853 5.39666 42.5723 5.47757V5.49377C42.4755 5.57467 42.3787 5.67176 42.2658 5.75266C41.9269 6.01155 41.5397 6.20573 41.1847 6.44844C41.0718 6.52935 40.9588 6.59407 40.862 6.69116C40.7491 6.77206 40.6523 6.85296 40.5555 6.95005C40.4425 7.04714 40.3618 7.14423 40.265 7.25749C40.1844 7.35458 40.0875 7.46784 40.023 7.58111C39.9423 7.69438 39.8617 7.80765 39.7971 7.92091C39.7326 8.05036 39.6842 8.16363 39.6196 8.29307C39.5712 8.42252 39.5228 8.53579 39.4905 8.66523C39.4421 8.81086 39.4099 8.94031 39.3776 9.06976C39.3615 9.13451 39.3614 9.21539 39.3454 9.28011C39.3292 9.34486 39.3292 9.40956 39.3131 9.47429C39.3131 9.60373 39.297 9.74936 39.297 9.87881C39.297 9.97589 39.297 10.073 39.3131 10.1701C39.3131 10.2995 39.3293 10.429 39.3615 10.5746C39.3777 10.704 39.4099 10.8335 39.4422 10.9629C39.4906 11.0924 39.5229 11.2218 39.5713 11.3513C39.6035 11.4322 39.6519 11.5131 39.6842 11.5778L35.9732 10.1377C35.3439 9.95971 34.7308 9.79791 34.1015 9.65228C33.7627 9.57137 33.4238 9.49046 33.085 9.40956C32.1169 9.21539 31.1327 9.06976 30.1484 8.97268C30.1162 8.97268 30.1 8.95647 30.0677 8.95647C29.0996 8.85939 28.1477 8.81085 27.1796 8.81085C26.4696 8.81085 25.7597 8.84318 25.0659 8.89175C24.0816 8.9565 23.0974 9.08592 22.1132 9.24773C21.8711 9.28007 21.6291 9.32864 21.3871 9.37718C20.8869 9.47426 20.4029 9.58753 19.9349 9.7008C19.6929 9.76555 19.4509 9.83025 19.2089 9.89497C18.9668 9.99205 18.7409 10.1053 18.5151 10.2024C18.3376 10.2833 18.1601 10.3642 17.9826 10.4451C17.9504 10.4613 17.918 10.4613 17.9019 10.4775C17.7406 10.5584 17.5954 10.6231 17.4501 10.704C17.4017 10.7202 17.3695 10.7363 17.3372 10.7525C17.1597 10.8334 16.9822 10.9305 16.837 11.0114C16.7241 11.06 16.6111 11.1247 16.5143 11.1732C16.4659 11.2056 16.4014 11.238 16.3691 11.2541C16.2239 11.3351 16.0787 11.416 15.9496 11.4969C15.8044 11.5778 15.6753 11.6587 15.5623 11.7396C15.4494 11.8205 15.3365 11.8852 15.2396 11.9661C15.2235 11.9823 15.2074 11.9823 15.1912 11.9984C15.0944 12.0632 14.9815 12.1441 14.8847 12.225C14.8847 12.225 14.8685 12.2412 14.8524 12.2573C14.7718 12.3221 14.6911 12.3868 14.6104 12.4515C14.5782 12.4677 14.5458 12.5 14.5136 12.5162C14.4329 12.581 14.3522 12.6619 14.2716 12.7266C14.2554 12.7589 14.2232 12.7751 14.207 12.7913C14.1102 12.8884 14.0134 12.9693 13.9166 13.0664C13.9004 13.0664 13.9004 13.0826 13.8843 13.0988C13.7875 13.1797 13.6907 13.2767 13.5939 13.3738C13.5777 13.39 13.5777 13.4062 13.5616 13.4062C13.481 13.4871 13.4003 13.568 13.3196 13.6651C13.2874 13.6974 13.2389 13.7298 13.2067 13.7621C13.126 13.8592 13.0292 13.9563 12.9324 14.0534C12.9162 14.0857 12.884 14.1019 12.8678 14.1343C12.7387 14.2638 12.6258 14.3932 12.4967 14.5227C12.4806 14.5389 12.4645 14.555 12.4483 14.5712C12.1901 14.8463 11.9158 15.1213 11.6254 15.3641C11.335 15.623 11.0284 15.8657 10.7219 16.076C10.3992 16.3026 10.0926 16.4967 9.75376 16.6909C9.43106 16.8689 9.09222 17.0307 8.73725 17.1763C8.39841 17.322 8.04344 17.4514 7.68847 17.5647C7.0108 17.7103 6.31699 17.9854 5.72 18.0339C5.59092 18.0339 5.4457 18.0663 5.31662 18.0825C5.17141 18.1148 5.04233 18.1472 4.91325 18.1796C4.78417 18.2281 4.65508 18.2766 4.52601 18.3252C4.39693 18.3737 4.26785 18.4384 4.13877 18.5032C4.02582 18.5841 3.89674 18.6488 3.78379 18.7297C3.67085 18.8106 3.5579 18.9077 3.46109 19.0048C3.34815 19.0857 3.2352 19.199 3.13839 19.296C3.04158 19.4093 2.94477 19.5064 2.8641 19.6197C2.78342 19.7491 2.68661 19.8624 2.62207 19.9918C2.5414 20.1051 2.46072 20.2345 2.39618 20.364C2.33161 20.5096 2.2671 20.6391 2.2187 20.7847C2.17029 20.9141 2.12188 21.0598 2.07348 21.2054C2.04123 21.3348 2.00891 21.4643 1.99281 21.5937C1.99281 21.61 1.97665 21.6261 1.97665 21.6423C1.9444 21.7879 1.9444 21.9821 1.92824 22.0792C1.91208 22.1924 1.896 22.2895 1.896 22.4028C1.896 22.4675 1.896 22.5484 1.91216 22.6131C1.92832 22.7264 1.9444 22.8235 1.97672 22.9206C2.00897 23.0177 2.04129 23.1147 2.08966 23.2118V23.228C2.13807 23.3251 2.20261 23.4222 2.26715 23.5193C2.33171 23.6164 2.39623 23.7135 2.47691 23.8106C2.55758 23.8915 2.65439 23.9885 2.7512 24.0695C2.84801 24.1665 2.94482 24.2474 3.05776 24.3283C3.44501 24.6681 3.54182 24.7814 4.042 25.0403C4.12268 25.0889 4.20336 25.1212 4.30017 25.1698C4.31633 25.1698 4.33241 25.186 4.34857 25.186C4.34857 25.2183 4.34857 25.2345 4.36474 25.2669C4.3809 25.3963 4.41314 25.5258 4.44541 25.6552C4.47765 25.8008 4.52609 25.9303 4.5745 26.0436C4.6229 26.1406 4.65517 26.2377 4.70357 26.3348C4.71974 26.3672 4.73582 26.3996 4.75198 26.4157C4.81655 26.5452 4.88106 26.6584 4.94559 26.7717C5.02628 26.885 5.10695 26.9982 5.18762 27.1115C5.2683 27.2086 5.36511 27.3219 5.46192 27.4189C5.55873 27.516 5.65554 27.5969 5.76849 27.694C5.76849 27.694 5.78465 27.7102 5.80073 27.7102C5.89754 27.7911 5.99435 27.8721 6.09117 27.9368C6.20411 28.0177 6.31706 28.0824 6.44613 28.1471C6.55908 28.2119 6.68816 28.2766 6.81724 28.3251C6.91405 28.3737 7.02699 28.406 7.13994 28.4384C7.1561 28.4546 7.17218 28.4546 7.20451 28.4707C7.26907 28.487 7.34971 28.5031 7.41426 28.5193C7.36585 29.393 7.34969 30.2183 7.47882 30.5095C7.62403 30.8331 8.33398 29.8461 9.04392 28.7134C8.94711 29.8299 8.88257 31.1406 9.04392 31.5289C9.2214 31.9334 10.1895 30.6713 11.0285 29.2798C22.4683 26.6261 32.9076 34.5548 34.0048 45.752C33.7951 44.0044 31.6491 43.0336 30.6649 43.2763C30.1808 44.4737 29.3579 46.0109 28.0349 46.9656C28.1478 45.8976 28.0994 44.7973 27.8735 43.7294C27.5185 45.218 26.8247 46.6096 25.8728 47.807C24.3399 47.9202 22.8071 47.1759 22.0003 46.0594C21.9358 46.0109 21.9197 45.9138 21.8713 45.8491C21.8229 45.7358 21.7745 45.6225 21.7422 45.5093C21.6938 45.396 21.6615 45.2827 21.6454 45.1695C21.6292 45.0562 21.6292 44.9429 21.6292 44.8135C21.6292 44.7326 21.6292 44.6517 21.6292 44.5708C21.6454 44.4575 21.6776 44.3442 21.7099 44.231C21.7421 44.1177 21.7745 44.0044 21.8228 43.8912C21.8874 43.7779 21.9358 43.6646 22.0165 43.5514C22.2908 42.7747 22.2908 42.1436 21.7906 41.7715C21.6938 41.7067 21.5969 41.6582 21.484 41.6097C21.4194 41.5935 21.3388 41.5611 21.2742 41.5449C21.2258 41.5287 21.1936 41.5126 21.1452 41.4964C21.0322 41.464 20.9193 41.4316 20.8063 41.4155C20.6934 41.3831 20.5804 41.3669 20.4675 41.3669C20.3546 41.3507 20.2255 41.3346 20.1125 41.3346C20.0318 41.3346 19.9512 41.3508 19.8705 41.3508C19.7414 41.3508 19.6285 41.367 19.5155 41.3993C19.4026 41.4156 19.2896 41.4317 19.1767 41.4641C19.0637 41.4964 18.9508 41.5288 18.8379 41.5774C18.7249 41.6259 18.6281 41.6744 18.5152 41.723C18.4183 41.7715 18.3215 41.8362 18.2086 41.8848C14.4491 44.3443 16.6919 50.1047 19.2574 51.7714C18.2893 51.9493 17.305 52.1597 17.0307 52.3701C17.0146 52.3863 16.9985 52.4024 16.9985 52.4024C17.6923 52.8231 18.4184 53.1791 19.1767 53.4865C20.2094 53.8263 21.3065 54.1338 21.7906 54.2632V54.2794C23.1298 54.5545 24.4851 54.6516 25.8566 54.5707C33.0044 54.0691 38.8615 48.6161 39.9264 41.4317C39.9586 41.5773 39.9909 41.7068 40.0232 41.8524C40.0716 42.1437 40.1361 42.4511 40.1684 42.7586V42.7748C40.2006 42.9204 40.2168 43.066 40.233 43.1955V43.2602C40.2491 43.4059 40.2652 43.5515 40.2652 43.6809C40.2814 43.8589 40.2975 44.0369 40.2975 44.2149V44.4738C40.2975 44.5547 40.3136 44.6518 40.3136 44.7327C40.3136 44.8298 40.2975 44.9269 40.2975 45.024V45.2505C40.2975 45.3638 40.2813 45.4608 40.2813 45.5741C40.2813 45.6389 40.2813 45.7036 40.2651 45.7845C40.2651 45.8977 40.249 46.011 40.249 46.1404C40.2328 46.189 40.2328 46.2375 40.2328 46.2861C40.2166 46.4155 40.2005 46.5288 40.1844 46.6582C40.1844 46.7068 40.1844 46.7553 40.1682 46.8039C40.152 46.9657 40.1198 47.1113 40.1037 47.2731V47.2893V47.3055C40.0714 47.4512 40.0391 47.613 40.0068 47.7586V47.8072C39.9746 47.9528 39.9423 48.0984 39.91 48.244C39.91 48.2603 39.8939 48.2926 39.8939 48.3088C39.8616 48.4544 39.8293 48.6 39.7809 48.7457V48.7942C39.7325 48.956 39.6841 49.1016 39.6519 49.2473C39.6357 49.2635 39.6357 49.2796 39.6357 49.2796C39.5873 49.4414 39.5389 49.6032 39.4905 49.765C39.4259 49.9269 39.3775 50.0725 39.313 50.2343C39.2484 50.3961 39.2001 50.5579 39.1355 50.7035C39.071 50.8654 39.0064 51.011 38.9419 51.1728H38.9257C38.8611 51.3184 38.7966 51.4802 38.716 51.6259C38.6998 51.6744 38.6837 51.7068 38.6676 51.7391C38.6514 51.7553 38.6514 51.7715 38.6353 51.7877C37.5865 53.9074 36.0376 55.7682 34.1014 57.2245C33.9723 57.3054 33.8432 57.4025 33.7141 57.4995C33.6819 57.5319 33.6334 57.5481 33.6012 57.5804C33.4882 57.6613 33.3753 57.7423 33.2462 57.8232L33.2946 57.9203H33.3108C33.5367 57.8879 33.7625 57.8555 33.9884 57.8232H34.0046C34.4241 57.7584 34.8436 57.6775 35.2631 57.5966C35.3761 57.5804 35.5052 57.5481 35.6181 57.5157C35.6988 57.4995 35.7633 57.4834 35.844 57.4672C35.9569 57.451 36.0699 57.4186 36.1828 57.4024C36.2796 57.3701 36.3765 57.3539 36.4733 57.3215C38.0868 56.9332 39.6519 56.3992 41.1524 55.7682C38.587 59.2794 35.1502 62.1111 31.1326 63.9719C32.9881 63.8425 34.8436 63.535 36.6346 63.0172C43.137 61.0917 48.6068 56.7066 51.8822 50.8006C51.2207 54.5384 49.7363 58.0982 47.5419 61.205C49.107 60.1694 50.543 58.972 51.8499 57.6128C55.4642 53.8264 57.836 49.0207 58.6428 43.859C59.1914 46.4155 59.3527 49.0531 59.1107 51.6582C70.7602 35.3639 60.0788 18.471 55.6094 14.0213C55.5932 13.9889 55.5772 13.9727 55.5772 13.9404C55.561 13.9566 55.561 13.9566 55.561 13.9727C55.561 13.9565 55.561 13.9565 55.5448 13.9404C55.5448 14.1345 55.5287 14.3287 55.5126 14.5229C55.4642 14.895 55.4158 15.251 55.3512 15.607C55.2706 15.963 55.1737 16.3189 55.0769 16.6749C54.964 17.0147 54.8349 17.3707 54.6897 17.7105C54.5445 18.0341 54.3831 18.3739 54.2056 18.6976C54.0282 19.005 53.8345 19.3286 53.6248 19.6199C53.415 19.9273 53.1891 20.2186 52.9632 20.4936C52.7212 20.7849 52.4631 21.0438 52.2049 21.3027C52.0436 21.4483 51.8983 21.5778 51.737 21.7072C51.6079 21.8205 51.495 21.9176 51.3659 22.0308C51.0754 22.2574 50.785 22.4677 50.4623 22.6619C50.1558 22.8561 49.8331 23.0502 49.5104 23.212C49.1715 23.3739 48.8327 23.5195 48.4938 23.6651C48.155 23.7946 47.8 23.9078 47.4451 24.0049C47.0901 24.102 46.719 24.1829 46.364 24.2476C45.9929 24.3124 45.6218 24.3447 45.2668 24.3771C45.0087 24.3933 44.7505 24.4094 44.4924 24.4094C44.1212 24.4094 43.7502 24.3771 43.3952 24.3447C43.0241 24.3123 42.653 24.2638 42.298 24.1828C41.9269 24.1181 41.5719 24.021 41.2169 23.9078H41.2008C41.5558 23.8754 41.9107 23.843 42.2657 23.7783C42.6368 23.7136 42.9918 23.6327 43.3467 23.5356C43.7017 23.4385 44.0567 23.3252 44.3955 23.1958C44.7505 23.0664 45.0893 22.9046 45.412 22.7427C45.7509 22.5809 46.0574 22.4029 46.3801 22.2088C46.6867 21.9984 46.9933 21.7881 47.2837 21.5615C47.5741 21.335 47.8484 21.0923 48.1066 20.8334C48.3809 20.5907 48.6229 20.3156 48.8649 20.0405C49.107 19.7493 49.3328 19.458 49.5426 19.1667C49.5748 19.1182 49.6072 19.0535 49.6394 19.0049C49.8008 18.746 49.9621 18.4871 50.1073 18.2282C50.2848 17.9046 50.4462 17.581 50.5914 17.2412C50.7366 16.9014 50.8657 16.5616 50.9786 16.2056C51.0916 15.8658 51.1722 15.5098 51.2529 15.1539C51.3175 14.7817 51.382 14.4257 51.4143 14.0697C51.4465 13.6976 51.4788 13.3254 51.4788 12.9694C51.4788 12.7105 51.4626 12.4516 51.4466 12.1928C51.4143 11.8206 51.3659 11.4646 51.3175 11.1086C51.2529 10.7365 51.1723 10.3805 51.0755 10.0245C50.9625 9.68471 50.8496 9.32872 50.7205 8.98893C50.5914 8.64912 50.4301 8.30932 50.2687 7.9857C50.0912 7.66208 49.9138 7.33846 49.7201 7.03103C49.5104 6.72359 49.3006 6.43233 49.0747 6.14107C48.8327 5.86599 48.5907 5.59092 48.3325 5.31584C48.2034 5.1864 48.0582 5.04077 47.913 4.91132C47.1869 4.34498 46.4286 3.81101 45.6702 3.32558C45.5573 3.26084 45.4605 3.21232 45.3475 3.16377C44.8151 2.82397 44.3149 2.64589 43.8147 2.48408Z" fill="#E0234E"/>
</svg>
