<svg width="65" height="65" viewBox="0 0 65 65" fill="none" xmlns="http://www.w3.org/2000/svg">
<g clip-path="url(#clip0_407_832)">
<path fill-rule="evenodd" clip-rule="evenodd" d="M22.1518 1.67831C21.8602 1.68109 21.5575 1.75144 21.2817 1.9043C20.406 2.38973 20.0848 3.51511 20.5699 4.39017L22.5473 7.96078C17.7833 10.9085 14.6264 15.9432 14.6264 21.6896C14.6264 21.7137 14.6263 21.7499 14.6264 21.7856C14.6264 21.7982 14.6263 21.8054 14.6264 21.8195C14.6264 21.8383 14.6264 21.8657 14.6264 21.8703V22.7574C13.7114 21.7046 12.3664 21.0398 10.8637 21.0398C8.11058 21.0398 5.875 23.2754 5.875 26.0285V41.3957C5.875 44.1488 8.11058 46.3844 10.8637 46.3844C12.3664 46.3844 13.7114 45.7196 14.6264 44.6669V46.8194C14.6264 49.7215 17.0011 52.0963 19.9032 52.0963H21.2422V58.9324C21.2422 61.6855 23.4778 63.9211 26.2309 63.9211C28.984 63.9211 31.2196 61.6855 31.2196 58.9324V52.0963H33.5359V58.9324C33.5359 61.6855 35.7715 63.9211 38.5246 63.9211C41.2777 63.9211 43.5133 61.6855 43.5133 58.9324V52.0963H44.8523C47.7544 52.0963 50.1291 49.7215 50.1291 46.8194V44.6669C51.0441 45.7196 52.3891 46.3844 53.8918 46.3844C56.6449 46.3844 58.8805 44.1488 58.8805 41.3957V26.0285C58.8805 23.2754 56.6449 21.0398 53.8918 21.0398C52.3891 21.0398 51.0441 21.7046 50.1291 22.7574V21.8873V21.8703C50.1292 21.8432 50.1291 21.8161 50.1291 21.8195C50.1295 21.7653 50.1291 21.7222 50.1291 21.6896C50.1291 15.9442 46.9652 10.9143 42.2026 7.96643L44.1856 4.39016C44.6707 3.5151 44.3495 2.38972 43.4738 1.90429C43.198 1.75144 42.8953 1.68109 42.6037 1.67831C41.957 1.67212 41.3223 2.01294 40.9879 2.61616L38.9145 6.36191C36.887 5.61374 34.6811 5.20372 32.3778 5.20372C30.0768 5.20372 27.8668 5.60954 25.841 6.35626L23.7676 2.61616C23.4332 2.01293 22.7985 1.67213 22.1518 1.67831V1.67831V1.67831Z" fill="white"/>
<path fill-rule="evenodd" clip-rule="evenodd" d="M10.8638 22.3392C8.80934 22.3392 7.17456 23.974 7.17456 26.0285V41.3957C7.17456 43.4502 8.80934 45.0849 10.8638 45.0849C12.9183 45.0849 14.5531 43.4502 14.5531 41.3957V26.0285C14.5531 23.974 12.9183 22.3392 10.8638 22.3392V22.3392V22.3392ZM53.892 22.3392C51.8375 22.3392 50.2027 23.974 50.2027 26.0285V41.3957C50.2027 43.4502 51.8375 45.0849 53.892 45.0849C55.9464 45.0849 57.5812 43.4502 57.5812 41.3957V26.0285C57.5812 23.974 55.9464 22.3392 53.892 22.3392V22.3392V22.3392Z" fill="#A4C639"/>
<path fill-rule="evenodd" clip-rule="evenodd" d="M26.2308 39.8759C24.1763 39.8759 22.5415 41.5106 22.5415 43.5651V58.9323C22.5415 60.9868 24.1763 62.6215 26.2308 62.6215C28.2852 62.6215 29.92 60.9868 29.92 58.9323V43.5651C29.92 41.5106 28.2852 39.8759 26.2308 39.8759V39.8759V39.8759ZM38.5246 39.8759C36.4702 39.8759 34.8354 41.5106 34.8354 43.5651V58.9323C34.8354 60.9868 36.4702 62.6215 38.5246 62.6215C40.5791 62.6215 42.2139 60.9868 42.2139 58.9323V43.5651C42.2139 41.5106 40.5791 39.8759 38.5246 39.8759V39.8759V39.8759Z" fill="#A4C639"/>
<path fill-rule="evenodd" clip-rule="evenodd" d="M22.1631 2.97769C22.0758 2.97858 21.9946 3.00108 21.9145 3.04548C21.6514 3.19131 21.5649 3.49361 21.7111 3.75735L24.3099 8.45225C19.3098 11.0539 15.9326 15.9982 15.9258 21.6726H48.8296C48.8229 15.9982 45.4456 11.0539 40.4455 8.45225L43.0444 3.75735C43.1905 3.49361 43.104 3.19131 42.841 3.04548C42.7609 3.00108 42.6796 2.97852 42.5924 2.97769C42.4057 2.97589 42.2287 3.06917 42.1291 3.24887L39.4963 7.99462C37.3426 7.03931 34.9269 6.5031 32.3777 6.5031C29.8285 6.5031 27.4128 7.03931 25.2591 7.99462L22.6263 3.24887C22.5267 3.06917 22.3497 2.9759 22.1631 2.97769V2.97769V2.97769ZM15.9258 22.972V46.8194C15.9258 49.0228 17.6997 50.7968 19.9032 50.7968H44.8523C47.0558 50.7968 48.8297 49.0228 48.8297 46.8194V22.972H15.9258V22.972V22.972Z" fill="#A4C639"/>
<path fill-rule="evenodd" clip-rule="evenodd" d="M24.7845 12.9042C24.0334 12.9042 23.4116 13.5259 23.4116 14.2771C23.4116 15.0282 24.0334 15.6499 24.7845 15.6499C25.5356 15.6499 26.1574 15.0282 26.1574 14.2771C26.1574 13.5259 25.5356 12.9042 24.7845 12.9042V12.9042V12.9042ZM39.9709 12.9042C39.2198 12.9042 38.598 13.526 38.598 14.2771C38.598 15.0282 39.2198 15.65 39.9709 15.65C40.722 15.65 41.3438 15.0282 41.3438 14.2771C41.3438 13.526 40.722 12.9042 39.9709 12.9042V12.9042V12.9042Z" fill="white"/>
</g>
<defs>
<clipPath id="clip0_407_832">
<rect width="53.125" height="62.375" fill="white" transform="translate(5.875 1.625)"/>
</clipPath>
</defs>
</svg>
