<svg width="65" height="65" viewBox="0 0 65 65" fill="none" xmlns="http://www.w3.org/2000/svg">
<g clip-path="url(#clip0_316_320)">
<path d="M17.9579 36.2746C17.9579 37.0622 18.0431 37.7007 18.1921 38.169C18.3624 38.6373 18.5752 39.1482 18.8732 39.7016C18.9797 39.8719 19.0222 40.0422 19.0222 40.1912C19.0222 40.404 18.8945 40.6169 18.6178 40.8297L17.2768 41.7237C17.0852 41.8514 16.8937 41.9153 16.7234 41.9153C16.5105 41.9153 16.2977 41.8089 16.0848 41.6173C15.7868 41.298 15.5314 40.9574 15.3185 40.6169C15.1057 40.255 14.8928 39.8506 14.6587 39.361C12.9984 41.3193 10.9124 42.2984 8.40065 42.2984C6.61265 42.2984 5.1865 41.7876 4.1435 40.7659C3.1005 39.7442 2.56836 38.3819 2.56836 36.679C2.56836 34.8697 3.20693 33.401 4.50536 32.2941C5.80379 31.1873 7.52793 30.6339 9.72036 30.6339C10.4441 30.6339 11.1891 30.6977 11.9767 30.8041C12.7642 30.9106 13.5731 31.0809 14.4245 31.2724V29.7186C14.4245 28.1009 14.0839 26.9727 13.4241 26.3129C12.7429 25.653 11.5935 25.3337 9.95451 25.3337C9.20951 25.3337 8.44322 25.4189 7.65565 25.6104C6.86808 25.802 6.10179 26.0361 5.35679 26.3341C5.01622 26.4831 4.76079 26.5683 4.61179 26.6109C4.46279 26.6534 4.35636 26.6747 4.27122 26.6747C3.97322 26.6747 3.82422 26.4619 3.82422 26.0149V24.9719C3.82422 24.6313 3.86679 24.3759 3.97322 24.2269C4.07965 24.0779 4.27122 23.9289 4.56922 23.7799C5.31422 23.3967 6.20822 23.0774 7.25122 22.822C8.29422 22.5453 9.40108 22.4176 10.5718 22.4176C13.1048 22.4176 14.9567 22.9923 16.1487 24.1417C17.3194 25.2911 17.9154 27.0366 17.9154 29.378V36.2746H17.9579ZM9.31593 39.51C10.0184 39.51 10.7421 39.3823 11.5084 39.1269C12.2747 38.8714 12.9558 38.4032 13.5305 37.7646C13.8711 37.3602 14.1265 36.9132 14.2542 36.4023C14.3819 35.8914 14.4671 35.2742 14.4671 34.5504V33.6564C13.8498 33.5074 13.1899 33.3797 12.5088 33.2946C11.8277 33.2094 11.1678 33.1669 10.5079 33.1669C9.08179 33.1669 8.03879 33.4436 7.33636 34.0183C6.63393 34.593 6.29336 35.4019 6.29336 36.4662C6.29336 37.4666 6.54879 38.2116 7.08093 38.7224C7.59179 39.2546 8.33679 39.51 9.31593 39.51ZM26.4084 41.8089C26.0252 41.8089 25.7698 41.745 25.5995 41.596C25.4292 41.4683 25.2802 41.1703 25.1525 40.7659L20.1504 24.312C20.0227 23.8863 19.9588 23.6096 19.9588 23.4606C19.9588 23.12 20.1291 22.9284 20.4697 22.9284H22.5557C22.9601 22.9284 23.2368 22.9923 23.3858 23.1413C23.5561 23.269 23.6838 23.567 23.8115 23.9714L27.3875 38.0626L30.7081 23.9714C30.8145 23.5457 30.9422 23.269 31.1125 23.1413C31.2828 23.0136 31.5808 22.9284 31.964 22.9284H33.6668C34.0712 22.9284 34.348 22.9923 34.5182 23.1413C34.6885 23.269 34.8375 23.567 34.9227 23.9714L38.2858 38.2329L41.9682 23.9714C42.096 23.5457 42.245 23.269 42.394 23.1413C42.5642 23.0136 42.841 22.9284 43.2241 22.9284H45.2037C45.5442 22.9284 45.7358 23.0987 45.7358 23.4606C45.7358 23.567 45.7145 23.6734 45.6932 23.8011C45.672 23.9289 45.6294 24.0991 45.5442 24.3333L40.4144 40.7872C40.2867 41.2129 40.1377 41.4896 39.9674 41.6173C39.7971 41.745 39.5204 41.8302 39.1585 41.8302H37.328C36.9235 41.8302 36.6468 41.7663 36.4765 41.6173C36.3062 41.4683 36.1572 41.1916 36.0721 40.7659L32.7728 27.0366L29.4948 40.7446C29.3884 41.1703 29.2607 41.447 29.0904 41.596C28.9201 41.745 28.6221 41.8089 28.2389 41.8089H26.4084ZM53.7605 42.3836C52.6537 42.3836 51.5468 42.2559 50.4825 42.0004C49.4182 41.745 48.5881 41.4683 48.0347 41.149C47.6941 40.9574 47.46 40.7446 47.3748 40.553C47.2897 40.3614 47.2471 40.1486 47.2471 39.957V38.8714C47.2471 38.4244 47.4174 38.2116 47.7367 38.2116C47.8644 38.2116 47.9921 38.2329 48.1198 38.2754C48.2475 38.318 48.4391 38.4032 48.652 38.4883C49.3757 38.8076 50.1632 39.063 50.9934 39.2333C51.8448 39.4036 52.675 39.4887 53.5264 39.4887C54.8674 39.4887 55.9104 39.2546 56.6341 38.7863C57.3578 38.318 57.741 37.6369 57.741 36.7642C57.741 36.1682 57.5494 35.6786 57.1663 35.2742C56.7831 34.8697 56.0594 34.5079 55.0164 34.1673L51.93 33.2094C50.3761 32.7199 49.2267 31.9961 48.5242 31.0383C47.8218 30.1017 47.46 29.0587 47.46 27.9519C47.46 27.0579 47.6515 26.2703 48.0347 25.5891C48.4178 24.908 48.9287 24.312 49.5672 23.8437C50.2058 23.3541 50.9295 22.9923 51.781 22.7369C52.6324 22.4814 53.5264 22.375 54.463 22.375C54.9313 22.375 55.4208 22.3963 55.8891 22.4601C56.3787 22.524 56.8257 22.6091 57.2727 22.6943C57.6984 22.8007 58.1028 22.9071 58.486 23.0349C58.8691 23.1626 59.1671 23.2903 59.38 23.418C59.678 23.5883 59.8908 23.7586 60.0185 23.9501C60.1463 24.1204 60.2101 24.3546 60.2101 24.6526V25.653C60.2101 26.1 60.0398 26.3341 59.7205 26.3341C59.5503 26.3341 59.2735 26.249 58.9117 26.0787C57.6984 25.5253 56.3361 25.2486 54.8248 25.2486C53.6115 25.2486 52.6537 25.4401 51.9938 25.8446C51.334 26.249 50.9934 26.8663 50.9934 27.739C50.9934 28.335 51.2062 28.8459 51.632 29.2503C52.0577 29.6547 52.8453 30.0591 53.9734 30.421L56.996 31.3789C58.5285 31.8684 59.6354 32.5496 60.2953 33.4223C60.9551 34.295 61.2744 35.2954 61.2744 36.4023C61.2744 37.3176 61.0828 38.1477 60.721 38.8714C60.3378 39.5952 59.827 40.2337 59.1671 40.7446C58.5073 41.2767 57.7197 41.6599 56.8044 41.9366C55.8465 42.2346 54.8461 42.3836 53.7605 42.3836Z" fill="#252F3E"/>
<path d="M57.7835 52.7284C50.7805 57.9008 40.606 60.6467 31.8575 60.6467C19.5969 60.6467 8.54965 56.1128 0.205649 48.5777C-0.454209 47.9817 0.141791 47.1728 0.929363 47.6411C9.95451 52.8774 21.0869 56.049 32.6025 56.049C40.3718 56.049 48.9074 54.4313 56.7618 51.1107C57.9325 50.5786 58.933 51.877 57.7835 52.7284ZM60.6997 49.4078C59.8057 48.2584 54.7823 48.8544 52.5047 49.1311C51.8235 49.2163 51.7171 48.6203 52.3344 48.1733C56.3361 45.3636 62.9134 46.1724 63.6797 47.109C64.446 48.0668 63.4668 54.6441 59.7205 57.7944C59.1458 58.284 58.5924 58.0286 58.8478 57.39C59.6993 55.2827 61.5937 50.536 60.6997 49.4078Z" fill="#FF9900"/>
</g>
<defs>
<clipPath id="clip0_316_320">
<rect width="64" height="64" fill="white" transform="translate(0.142822 0.5)"/>
</clipPath>
</defs>
</svg>
