<svg width="64" height="65" viewBox="0 0 64 65" fill="none" xmlns="http://www.w3.org/2000/svg">
<path d="M0 64.75V0.75H64V64.75H0Z" fill="#FFD600"/>
<path d="M41.8454 48.6558C43.0756 50.654 44.4125 52.5687 47.2445 52.5687C49.6232 52.5687 50.8712 51.3865 50.8712 49.7509C50.8712 47.7936 49.5805 47.0985 46.9636 45.9589L45.5289 45.3473C41.3885 43.5909 38.6347 41.39 38.6347 36.7411C38.6347 32.4567 41.9147 29.1962 47.04 29.1962C50.6898 29.1962 53.312 30.4602 55.2036 33.7705L50.7343 36.6273C49.7511 34.8709 48.688 34.1793 47.04 34.1793C45.3583 34.1793 44.2934 35.2407 44.2934 36.6273C44.2934 38.3411 45.36 39.0345 47.8223 40.0958L49.2569 40.7073C54.1369 42.7856 56.8889 44.9082 56.8889 49.6798C56.8889 54.8211 52.8285 57.6389 47.3778 57.6389C42.0463 57.6389 39.0187 54.9633 37.3334 51.6513L41.8454 48.6558ZM21.248 48.8016C22.1476 50.4122 23.5147 51.6513 25.4809 51.6513C27.3618 51.6513 28.4445 50.9082 28.4445 48.0193V29.1945H34.3698V48.9296C34.3698 54.9154 30.8978 57.6389 25.8276 57.6389C21.2463 57.6389 17.9396 54.5349 16.592 51.6513L21.248 48.8016Z" fill="#000001"/>
</svg>
