<svg width="65" height="65" viewBox="0 0 65 65" fill="none" xmlns="http://www.w3.org/2000/svg">
<g clip-path="url(#clip0_407_998)">
<path d="M41.3244 21.0832H43.2774L48.8412 15.5194L49.1148 13.1586C38.7624 4.02152 22.9589 5.00605 13.8218 15.3584C11.2814 18.2342 9.43837 21.6546 8.43506 25.3567C9.05475 25.1018 9.74151 25.0616 10.388 25.2386L21.513 23.4037C21.513 23.4037 22.079 22.4674 22.3714 22.5265C27.3209 17.0914 35.6506 16.4583 41.3646 21.0832H41.3244Z" fill="#EA4335"/>
<path d="M56.7656 25.3567C55.486 20.6487 52.8623 16.4155 49.2112 13.1775L41.4048 20.984C44.7017 23.6774 46.5796 27.7362 46.4991 31.9936V33.3805C50.338 33.3805 53.4471 36.4924 53.4471 40.3286C53.4471 44.1675 50.3353 47.2767 46.4991 47.2767H32.6003L31.2134 48.6824V57.0174L32.6003 58.4043H46.4991C54.4665 58.466 61.5353 53.3019 63.9014 45.6939C66.2621 38.0832 63.3649 29.8207 56.7656 25.3567Z" fill="#4285F4"/>
<path d="M18.6828 58.3264H32.5816V47.2015H18.6828C17.6929 47.2015 16.7137 46.9895 15.8124 46.5764L13.8594 47.18L8.25802 52.7438L7.76978 54.6968C10.9112 57.0683 14.7447 58.3425 18.6828 58.3264Z" fill="#34A853"/>
<path d="M18.6827 22.234C10.962 22.2796 4.12394 27.2237 1.66127 34.5393C-0.801407 41.8549 1.65322 49.9296 7.77235 54.635L15.8337 46.5737C12.3355 44.9936 10.7823 40.8784 12.3624 37.3802C13.9424 33.882 18.0576 32.3288 21.5558 33.9089C23.0957 34.6064 24.3297 35.8404 25.0272 37.3802L33.0885 29.3189C29.6574 24.8362 24.327 22.2152 18.6827 22.234Z" fill="#FBBC05"/>
</g>
<defs>
<clipPath id="clip0_407_998">
<rect width="64" height="51.5042" fill="white" transform="translate(0.714355 6.90002)"/>
</clipPath>
</defs>
</svg>
