<svg width="65" height="65" viewBox="0 0 65 65" fill="none" xmlns="http://www.w3.org/2000/svg">
<g clip-path="url(#clip0_316_285)">
<mask id="mask0_316_285" style="mask-type:alpha" maskUnits="userSpaceOnUse" x="0" y="0" width="65" height="65">
<path d="M32.6428 64.75C50.3159 64.75 64.6428 50.4231 64.6428 32.75C64.6428 15.0769 50.3159 0.75 32.6428 0.75C14.9697 0.75 0.642822 15.0769 0.642822 32.75C0.642822 50.4231 14.9697 64.75 32.6428 64.75Z" fill="black"/>
</mask>
<g mask="url(#mask0_316_285)">
</g>
<path d="M23.7742 60.5366C26.254 61.5347 28.9442 62.1269 31.769 62.2256C35.592 62.3591 39.2274 61.5687 42.4774 60.0673C38.5801 58.5361 35.0505 56.2968 32.0381 53.5128C30.0854 56.6392 27.1973 59.1088 23.7742 60.5366Z" fill="#FF9100"/>
<path d="M32.0379 53.5137C25.1615 47.154 20.99 37.9492 21.3425 27.8531C21.354 27.5253 21.3713 27.1976 21.3916 26.8701C20.16 26.5515 18.8742 26.3572 17.5512 26.311C15.6573 26.2449 13.8232 26.4798 12.0916 26.9673C10.256 30.1828 9.14826 33.8722 9.01025 37.824C8.65412 48.0225 14.8259 56.9337 23.7739 60.5375C27.1971 59.1095 30.0851 56.6431 32.0379 53.5137Z" fill="#FFC400"/>
<path d="M32.0379 53.5134C33.6366 50.9549 34.6058 47.9554 34.7187 44.7237C35.0156 36.2229 29.3009 28.9103 21.3916 26.8698C21.3713 27.1973 21.354 27.525 21.3425 27.8528C20.99 37.9489 25.1615 47.1537 32.0379 53.5134Z" fill="#FF9100"/>
<path d="M33.8343 2.97485C29.3297 6.58364 25.7726 11.3422 23.6204 16.8239C22.3883 19.9637 21.614 23.3364 21.3879 26.8719C29.2973 28.9124 35.012 36.2251 34.7152 44.7257C34.6023 47.9574 33.6302 50.954 32.0342 53.5155C35.0465 56.3024 38.5762 58.5388 42.4735 60.0699C50.2961 56.4539 55.8463 48.6729 56.1677 39.4696C56.3759 33.5069 54.0849 28.1924 50.8477 23.7067C47.4289 18.9624 33.8343 2.97485 33.8343 2.97485Z" fill="#DD2C00"/>
</g>
<defs>
<clipPath id="clip0_316_285">
<rect width="64" height="64" fill="white" transform="translate(0.642822 0.75)"/>
</clipPath>
</defs>
</svg>
