<svg width="65" height="65" viewBox="0 0 65 65" fill="none" xmlns="http://www.w3.org/2000/svg">
<g clip-path="url(#clip0_316_300)">
<path d="M64.2856 50.34C61.9576 50.932 60.5176 50.366 59.2256 48.426L50.0376 35.714L48.7096 33.954L37.9796 48.468C36.7536 50.214 35.4676 50.974 33.1796 50.356L46.9196 31.912L34.1276 15.252C36.3276 14.824 37.8476 15.042 39.1976 17.012L48.7276 29.882L58.3276 17.082C59.5576 15.336 60.8796 14.672 63.0876 15.316L58.1276 21.892L51.4076 30.642C50.6076 31.642 50.7176 32.326 51.4536 33.292L64.2856 50.34ZM0.301645 31.604L1.42564 26.076C4.48564 15.136 17.0256 10.59 25.6736 17.35C30.7276 21.326 31.9836 26.95 31.7336 33.25H3.24564C2.81764 44.59 10.9796 51.434 21.3856 47.942C25.0356 46.716 27.1856 43.858 28.2616 40.282C28.8076 38.49 29.7116 38.21 31.3956 38.722C30.5356 43.194 28.5956 46.93 24.4956 49.268C18.3696 52.768 9.62564 51.636 5.02564 46.772C2.28564 43.95 1.15364 40.374 0.645645 36.55C0.565645 35.918 0.405645 35.316 0.285645 34.71C0.296311 33.6754 0.301645 32.6407 0.301645 31.606V31.604ZM3.29764 30.844H29.0416C28.8736 22.644 23.7676 16.82 16.7896 16.77C9.12964 16.71 3.62964 22.396 3.29764 30.844Z" fill="black"/>
</g>
<defs>
<clipPath id="clip0_316_300">
<rect width="64" height="64" fill="white" transform="translate(0.285645 0.75)"/>
</clipPath>
</defs>
</svg>
