<svg width="58" height="65" viewBox="0 0 58 65" fill="none" xmlns="http://www.w3.org/2000/svg">
<g clip-path="url(#clip0_316_295)">
<path d="M29.171 64.75C28.3131 64.75 27.5123 64.5168 26.7687 64.1086L19.1614 59.5017C18.0174 58.8602 18.5894 58.627 18.9326 58.5103C20.477 57.9855 20.7629 57.8689 22.3645 56.9359C22.536 56.8192 22.7648 56.8775 22.9364 56.9942L28.7706 60.5514C28.9994 60.668 29.2854 60.668 29.457 60.5514L52.279 47.0807C52.5077 46.964 52.6221 46.7308 52.6221 46.4392V19.556C52.6221 19.2645 52.5077 19.0312 52.279 18.9146L29.457 5.50223C29.2282 5.38561 28.9422 5.38561 28.7706 5.50223L5.94866 18.9146C5.71988 19.0312 5.60548 19.3228 5.60548 19.556V46.4392C5.60548 46.6724 5.71988 46.964 5.94866 47.0807L12.1832 50.7545C15.5579 52.5039 17.6742 50.4629 17.6742 48.4219V21.8886C17.6742 21.5388 17.9602 21.1889 18.3606 21.1889H21.2777C21.6209 21.1889 21.964 21.4805 21.964 21.8886V48.4219C21.964 53.0288 19.5045 55.7113 15.2147 55.7113C13.8992 55.7113 12.8696 55.7113 9.95249 54.2534L3.94674 50.7545C2.4596 49.8797 1.54443 48.2469 1.54443 46.4975V19.6144C1.54443 17.865 2.4596 16.2322 3.94674 15.3574L26.7687 1.88672C28.1987 1.07031 30.1434 1.07031 31.5733 1.88672L54.3952 15.3574C55.8824 16.2322 56.7976 17.865 56.7976 19.6144V46.4975C56.7976 48.2469 55.8824 49.8797 54.3952 50.7545L31.5733 64.2252C30.887 64.5168 30.029 64.75 29.171 64.75Z" fill="#5FA04E"/>
<path d="M36.2636 46.2642C26.2539 46.2642 24.1948 41.599 24.1948 37.6336C24.1948 37.2837 24.4808 36.9339 24.8811 36.9339H27.8555C28.1986 36.9339 28.4847 37.1671 28.4847 37.517C28.9422 40.6076 30.2578 42.1238 36.3208 42.1238C41.1253 42.1238 43.1845 41.0158 43.1845 38.3917C43.1845 36.8755 42.6125 35.7675 35.1196 35.0094C28.885 34.3679 24.9956 32.9684 24.9956 27.895C24.9956 23.1715 28.885 20.3724 35.4056 20.3724C42.7269 20.3724 46.3303 22.9383 46.788 28.5365C46.788 28.7115 46.7308 28.8864 46.6164 29.0614C46.502 29.1779 46.3303 29.2946 46.1588 29.2946H43.1273C42.8413 29.2946 42.5553 29.0614 42.4981 28.7697C41.8117 25.5624 40.0386 24.5127 35.3484 24.5127C30.0861 24.5127 29.457 26.3789 29.457 27.7784C29.457 29.4695 30.2006 29.9944 37.2931 30.9274C44.3284 31.8604 47.6459 33.2017 47.6459 38.2168C47.6459 43.3484 43.4705 46.2642 36.2636 46.2642Z" fill="#5FA04E"/>
</g>
<defs>
<clipPath id="clip0_316_295">
<rect width="56.32" height="64" fill="white" transform="translate(0.911621 0.75)"/>
</clipPath>
</defs>
</svg>
