<svg width="65" height="72" viewBox="0 0 65 72" fill="none" xmlns="http://www.w3.org/2000/svg">
<g clip-path="url(#clip0_407_1063)">
<path d="M32.1628 0C33.4909 0.0224722 34.7941 0.376524 35.954 1.03161L60.1108 14.6749C61.084 15.2252 61.9522 15.9597 62.6483 16.8203L62.6722 16.8059L63.032 17.334L63.0744 17.3945L63.5239 18.0571L63.492 18.0763C64.0886 19.1629 64.4166 20.349 64.4287 21.5554V49.2907C64.4414 50.6913 64.0857 52.0708 63.3967 53.2916C62.7077 54.5115 61.7099 55.5287 60.5032 56.2409L36.6086 70.3392C35.6127 70.9277 34.5068 71.287 33.3663 71.4033L33.3662 71.4387L31.8379 71.451L31.8388 71.4132C30.7127 71.3121 29.6175 70.9726 28.6273 70.4138L3.24607 56.0771C1.52182 55.1065 0.448467 53.2869 0.428711 51.2989V21.9268C0.442938 20.8907 0.62341 19.8909 0.965214 18.9714L0.936718 18.9551L1.59081 17.5886L1.62781 17.609C2.23646 16.6226 3.06177 15.8044 4.07778 15.204L27.9729 1.10836C29.1789 0.395729 30.5518 0.013494 31.9532 0H32.1628ZM2.30357 19.7205L2.25002 19.8904C2.03722 20.5942 1.93219 21.3545 1.9402 22.1469L1.94017 51.2914C1.95451 52.732 2.73482 54.0548 3.98849 54.7605L29.3704 69.0976C30.1247 69.5233 30.9544 69.792 31.8094 69.8908L31.8623 69.8958L31.8682 68.6628L31.8734 63.4912L31.8652 57.6208L31.8311 57.6175C31.3066 57.5484 30.7954 57.3983 30.3155 57.1722L30.1371 57.0839L29.9792 56.9983L14.6025 48.313C14.0435 47.9978 13.5776 47.5411 13.2517 46.9887C12.9258 46.437 12.7511 45.8086 12.7444 45.1592L12.7445 27.5055C12.739 26.9438 12.8096 26.3963 12.9547 25.8801L13.0038 25.7148L2.30357 19.7205ZM62.193 18.8523L51.6431 25.153L51.6663 25.2012C51.9267 25.7632 52.079 26.3615 52.1078 26.9725L52.1126 27.1395L52.1122 43.9396C52.1209 44.8408 51.892 45.7284 51.4488 46.5126C51.0058 47.2973 50.3638 47.9516 49.5878 48.4095L35.1124 56.9503C34.6116 57.2463 34.0671 57.4518 33.5019 57.5628L33.3778 57.5849L33.38 58.7795L33.3854 65.6991L33.3752 69.763L33.3738 69.8806L33.5996 69.8484C34.3214 69.7309 35.0197 69.492 35.6653 69.1373L35.84 69.0377L59.735 54.9392C60.7131 54.3619 61.5221 53.5373 62.0805 52.5485C62.639 51.5588 62.9274 50.4405 62.9164 49.298L62.9169 21.5628C62.9086 20.7059 62.6925 19.8498 62.2931 19.045L62.193 18.8523ZM31.4287 21.6462C31.2002 21.7138 30.9803 21.8093 30.7748 21.9301L21.0716 27.6542C20.7894 27.8204 20.5416 28.0389 20.3414 28.2976C20.2629 28.3988 20.1926 28.5053 20.1298 28.6161C20.0984 28.6719 20.0688 28.7282 20.0408 28.7862L19.9885 28.9162C19.8677 29.2036 19.7874 29.5112 19.756 29.834C19.7446 29.9574 19.739 30.0826 19.7401 30.2091V42.0481C19.7438 42.3888 19.8367 42.7229 20.0099 43.0169C20.183 43.3105 20.4308 43.5534 20.7279 43.7205L31.0353 49.5427C31.4824 49.7953 31.9884 49.9262 32.5018 49.9218L32.6118 49.9174L32.6123 53.1049L32.6194 56.146L32.6122 49.917C33.0907 49.8965 33.557 49.7586 33.9701 49.5152L43.6734 43.7903C44.117 43.5286 44.4838 43.1547 44.7373 42.7063C44.7779 42.6343 44.8141 42.5602 44.8485 42.4847C45.0282 42.0926 45.1199 41.6664 45.1164 41.235L45.1168 29.9696C45.1146 29.7646 45.0871 29.5631 45.0374 29.3677C45.0047 29.2372 44.9615 29.1094 44.9096 28.9851C44.8839 28.9232 44.8555 28.8621 44.8254 28.8019C44.7896 28.7308 44.7504 28.6614 44.7094 28.5934L44.6652 28.5222L44.6195 28.452C44.5488 28.3487 44.4725 28.2492 44.3905 28.155C44.1427 27.8697 43.8478 27.6289 43.5189 27.4422L33.7093 21.9022C33.3167 21.6802 32.8783 21.5519 32.4277 21.5271C32.0905 21.5088 31.7524 21.5489 31.4287 21.6462ZM31.968 1.51142C30.8318 1.52236 29.7191 1.83215 28.7413 2.40994L4.84622 16.5056C4.11904 16.9353 3.517 17.5047 3.05172 18.1902L2.94765 18.3489L13.6725 24.3538L13.7841 24.2023C14.1082 23.7791 14.5027 23.4149 14.961 23.122L15.1018 23.0354L29.5776 14.4955C30.3534 14.037 31.2364 13.791 32.1377 13.7823C33.0389 13.7736 33.9265 14.0024 34.7109 14.4457L49.3457 22.7122C49.8499 22.9971 50.31 23.3595 50.7062 23.784L50.8046 23.8928L61.3336 17.6043L61.218 17.4726C60.7335 16.9363 60.1643 16.4674 59.539 16.0911L59.3672 15.9908L35.2107 2.3477C34.2208 1.78863 33.1026 1.50011 31.968 1.51142Z" fill="#4285F4"/>
</g>
<defs>
<clipPath id="clip0_407_1063">
<rect width="64" height="71.5" fill="white" transform="translate(0.428711)"/>
</clipPath>
</defs>
</svg>
