<svg width="65" height="65" viewBox="0 0 65 65" fill="none" xmlns="http://www.w3.org/2000/svg">
<g clip-path="url(#clip0_407_1031)">
<path d="M14.1902 0.5C6.84218 0.5 0.857178 6.485 0.857178 13.833C0.857178 20.268 5.44768 25.6585 11.5242 26.898V45.833C11.5242 51.718 16.3642 56.5 22.1902 56.5H22.2877C22.9387 61.0115 26.8377 64.5 31.5242 64.5C36.6632 64.5 40.8572 60.306 40.8572 55.167C40.8572 50.028 36.6632 45.833 31.5242 45.833C26.8382 45.833 22.9392 49.3215 22.2877 53.833H22.1902C17.8217 53.833 14.1902 50.257 14.1902 45.833V32.3895C15.0531 33.2699 16.0832 33.9692 17.22 34.4461C18.3568 34.9231 19.5774 35.1682 20.8102 35.167H22.2877C22.9392 39.6785 26.8377 43.167 31.5242 43.167C36.2102 43.167 40.1087 39.6785 40.7592 35.167H46.2877C46.9392 39.6785 50.8377 43.167 55.5242 43.167C60.6632 43.167 64.8572 38.972 64.8572 33.833C64.8572 28.694 60.6632 24.5 55.5242 24.5C50.8377 24.5 46.9387 27.9885 46.2877 32.5H40.7597C40.1092 27.9885 36.2107 24.5 31.5242 24.5C26.8377 24.5 22.9387 27.9885 22.2877 32.5H20.8102C17.5937 32.5 14.9137 30.2055 14.3162 27.164C21.6062 27.096 27.5242 21.139 27.5242 13.833C27.5242 6.485 21.5382 0.5 14.1902 0.5ZM14.1902 3.167C15.5917 3.16423 16.9799 3.43822 18.2753 3.97325C19.5707 4.50827 20.7476 5.2938 21.7387 6.28477C22.7298 7.27574 23.5154 8.45264 24.0505 9.74795C24.5857 11.0433 24.8598 12.4315 24.8572 13.833C24.8598 15.2346 24.5857 16.6228 24.0506 17.9182C23.5154 19.2136 22.7298 20.3905 21.7388 21.3816C20.7477 22.3726 19.5707 23.1583 18.2754 23.6934C16.98 24.2285 15.5917 24.5026 14.1902 24.5C12.7887 24.5026 11.4004 24.2285 10.1051 23.6934C8.80981 23.1582 7.63291 22.3726 6.64195 21.3815C5.65098 20.3905 4.86545 19.2135 4.33042 17.9181C3.7954 16.6228 3.52141 15.2345 3.52418 13.833C3.52141 12.4315 3.79541 11.0433 4.33044 9.74803C4.86548 8.45272 5.65102 7.27581 6.64201 6.28483C7.63299 5.29385 8.8099 4.5083 10.1052 3.97326C11.4005 3.43823 12.7887 3.16423 14.1902 3.167ZM11.5827 6.9375C10.1922 6.9445 8.85718 8.0615 8.85718 9.583V18.1045C8.85718 20.126 11.2117 21.436 12.9297 20.371L19.7467 16.1435C21.3752 15.1335 21.3837 12.6425 19.7627 11.621L12.9452 7.326C12.5377 7.06845 12.0647 6.93359 11.5827 6.9375ZM11.5242 9.583L18.3417 13.877L11.5242 18.1045V9.583ZM31.5242 27.167C32.4003 27.1642 33.2684 27.3348 34.0784 27.6688C34.8884 28.0028 35.6244 28.4937 36.2439 29.1132C36.8635 29.7328 37.3544 30.4687 37.6884 31.2788C38.0224 32.0888 38.193 32.9568 38.1902 33.833C38.1929 34.7092 38.0223 35.5773 37.6883 36.3873C37.3543 37.1974 36.8634 37.9333 36.2438 38.553C35.6243 39.1726 34.8884 39.6636 34.0784 39.9977C33.2684 40.3319 32.4004 40.5026 31.5242 40.5C30.6479 40.5026 29.7798 40.332 28.9697 39.9979C28.1596 39.6638 27.4236 39.1728 26.804 38.5532C26.1844 37.9336 25.6934 37.1975 25.3593 36.3875C25.0252 35.5774 24.8545 34.7093 24.8572 33.833C24.8546 32.9568 25.0253 32.0887 25.3594 31.2788C25.6936 30.4688 26.1846 29.7329 26.8042 29.1133C27.4238 28.4938 28.1598 28.0029 28.9699 27.6689C29.7799 27.3349 30.648 27.1643 31.5242 27.167ZM55.5242 27.167C56.4003 27.1642 57.2684 27.3348 58.0784 27.6688C58.8884 28.0028 59.6244 28.4937 60.2439 29.1132C60.8635 29.7328 61.3544 30.4687 61.6884 31.2788C62.0224 32.0888 62.193 32.9568 62.1902 33.833C62.1929 34.7092 62.0223 35.5773 61.6883 36.3873C61.3543 37.1974 60.8634 37.9333 60.2438 38.553C59.6243 39.1726 58.8884 39.6636 58.0784 39.9977C57.2684 40.3319 56.4004 40.5026 55.5242 40.5C54.6479 40.5026 53.7798 40.332 52.9697 39.9979C52.1596 39.6638 51.4236 39.1728 50.804 38.5532C50.1844 37.9336 49.6934 37.1975 49.3593 36.3875C49.0252 35.5774 48.8545 34.7093 48.8572 33.833C48.8546 32.9568 49.0253 32.0887 49.3594 31.2788C49.6936 30.4688 50.1846 29.7329 50.8042 29.1133C51.4238 28.4938 52.1598 28.0029 52.9699 27.6689C53.7799 27.3349 54.648 27.1643 55.5242 27.167ZM34.2402 30.6425C34.065 30.6423 33.8915 30.6767 33.7296 30.7436C33.5677 30.8105 33.4206 30.9087 33.2967 31.0325L30.1467 34.1795L29.1002 33.1375C28.8497 32.8879 28.5104 32.748 28.1568 32.7486C27.8032 32.7492 27.4643 32.8901 27.2147 33.1405C27.0911 33.2646 26.9932 33.4118 26.9265 33.5738C26.8598 33.7357 26.8257 33.9092 26.826 34.0843C26.8264 34.2595 26.8613 34.4328 26.9286 34.5945C26.996 34.7561 27.0946 34.9029 27.2187 35.0265L29.2057 37.0065C29.4557 37.2556 29.7943 37.3955 30.1473 37.3954C30.5002 37.3953 30.8388 37.2553 31.0887 37.006L35.1812 32.919C35.3051 32.7952 35.4034 32.6483 35.4705 32.4865C35.5376 32.3247 35.5722 32.1513 35.5723 31.9762C35.5724 31.8011 35.538 31.6276 35.4711 31.4658C35.4041 31.304 35.306 31.1569 35.1822 31.033C34.9322 30.7834 34.5934 30.6426 34.2402 30.6425ZM58.2402 30.6425C58.065 30.6423 57.8915 30.6767 57.7296 30.7436C57.5677 30.8105 57.4206 30.9087 57.2967 31.0325L54.1467 34.1795L53.1002 33.1375C52.8497 32.8879 52.5104 32.748 52.1568 32.7486C51.8032 32.7492 51.4643 32.8901 51.2147 33.1405C51.0911 33.2646 50.9932 33.4118 50.9265 33.5738C50.8598 33.7357 50.8257 33.9092 50.826 34.0843C50.8264 34.2595 50.8613 34.4328 50.9286 34.5945C50.996 34.7561 51.0946 34.9029 51.2187 35.0265L53.2057 37.0065C53.4557 37.2556 53.7943 37.3955 54.1473 37.3954C54.5002 37.3953 54.8388 37.2553 55.0887 37.006L59.1812 32.919C59.3051 32.7952 59.4034 32.6483 59.4705 32.4865C59.5376 32.3247 59.5722 32.1513 59.5723 31.9762C59.5724 31.8011 59.538 31.6276 59.4711 31.4658C59.4041 31.304 59.306 31.1569 59.1822 31.033C58.9322 30.7834 58.5934 30.6426 58.2402 30.6425ZM31.5242 48.5C32.4004 48.4974 33.2684 48.6681 34.0784 49.0023C34.8884 49.3364 35.6243 49.8274 36.2438 50.447C36.8634 51.0667 37.3543 51.8026 37.6883 52.6127C38.0223 53.4227 38.1929 54.2908 38.1902 55.167C38.193 56.0432 38.0224 56.9112 37.6884 57.7212C37.3544 58.5313 36.8635 59.2672 36.2439 59.8868C35.6244 60.5063 34.8884 60.9972 34.0784 61.3312C33.2684 61.6652 32.4003 61.8358 31.5242 61.833C30.648 61.8357 29.7799 61.6651 28.9699 61.3311C28.1598 60.9971 27.4238 60.5062 26.8042 59.8867C26.1846 59.2671 25.6936 58.5312 25.3594 57.7212C25.0253 56.9113 24.8546 56.0432 24.8572 55.167C24.8545 54.2907 25.0252 53.4226 25.3593 52.6125C25.6934 51.8025 26.1844 51.0664 26.804 50.4468C27.4236 49.8272 28.1596 49.3362 28.9697 49.0021C29.7798 48.668 30.6479 48.4974 31.5242 48.5ZM28.8572 53.167C27.7607 53.167 26.8572 54.0705 26.8572 55.167C26.8572 56.2645 27.7612 57.167 28.8572 57.167C29.9532 57.167 30.8572 56.2645 30.8572 55.167C30.8572 54.0705 29.9537 53.167 28.8572 53.167ZM34.1902 53.167C33.0937 53.167 32.1902 54.0705 32.1902 55.167C32.1902 56.2645 33.0942 57.167 34.1902 57.167C35.2862 57.167 36.1902 56.2645 36.1902 55.167C36.1902 54.0705 35.2867 53.167 34.1902 53.167ZM28.8572 54.5C29.2322 54.5 29.5242 54.7925 29.5242 55.167C29.5242 55.5435 29.2327 55.833 28.8572 55.833C28.4822 55.833 28.1902 55.543 28.1902 55.167C28.1902 54.792 28.4827 54.5 28.8572 54.5ZM34.1902 54.5C34.5652 54.5 34.8572 54.7925 34.8572 55.167C34.8572 55.5435 34.5657 55.833 34.1902 55.833C33.8152 55.833 33.5242 55.543 33.5242 55.167C33.5242 54.792 33.8157 54.5 34.1902 54.5Z" fill="#2088FF"/>
<path d="M55.5241 45.833C50.8326 45.833 46.9301 49.3295 46.2856 53.8485C46.2416 53.8445 46.1973 53.8426 46.1531 53.843L44.8031 53.888C44.4498 53.8996 44.1156 54.051 43.8739 54.309C43.6322 54.5669 43.5028 54.9102 43.5141 55.2635C43.5257 55.6169 43.6772 55.9512 43.9352 56.1929C44.1933 56.4346 44.5367 56.564 44.8901 56.5525L46.2401 56.509C46.2563 56.5083 46.2725 56.5073 46.2886 56.506C46.9421 61.0145 50.8396 64.5 55.5241 64.5C60.6631 64.5 64.8571 60.306 64.8571 55.167C64.8571 50.028 60.6631 45.833 55.5241 45.833ZM55.5241 48.5C56.4003 48.4974 57.2684 48.6681 58.0784 49.0023C58.8883 49.3364 59.6243 49.8274 60.2438 50.447C60.8633 51.0667 61.3542 51.8027 61.6882 52.6127C62.0222 53.4227 62.1928 54.2908 62.1901 55.167C62.1929 56.0432 62.0224 56.9112 61.6883 57.7213C61.3543 58.5313 60.8634 59.2672 60.2439 59.8868C59.6243 60.5063 58.8884 60.9972 58.0784 61.3312C57.2683 61.6653 56.4003 61.8358 55.5241 61.833C54.6479 61.8357 53.7798 61.6651 52.9698 61.3311C52.1598 60.9971 51.4238 60.5062 50.8041 59.8867C50.1845 59.2672 49.6935 58.5312 49.3594 57.7212C49.0252 56.9113 48.8545 56.0432 48.8571 55.167C48.8545 54.2907 49.0251 53.4226 49.3592 52.6125C49.6933 51.8025 50.1843 51.0665 50.8039 50.4468C51.4236 49.8272 52.1596 49.3362 52.9696 49.0021C53.7797 48.668 54.6478 48.4974 55.5241 48.5Z" fill="#79B8FF"/>
</g>
<defs>
<clipPath id="clip0_407_1031">
<rect width="64" height="64" fill="white" transform="translate(0.857178 0.5)"/>
</clipPath>
</defs>
</svg>
