<svg width="599" height="124" viewBox="0 0 599 124" fill="none" xmlns="http://www.w3.org/2000/svg">
<mask id="mask0_411_755" style="mask-type:luminance" maskUnits="userSpaceOnUse" x="298" y="23" width="301" height="98">
<path d="M598.867 23.0122H298.867V120.012H598.867V23.0122Z" fill="white"/>
</mask>
<g mask="url(#mask0_411_755)">
<path fill-rule="evenodd" clip-rule="evenodd" d="M564.49 85.9751V97.645H551.404V23.645H564.49V68.4947H564.686L583.117 47.645H598.17L580.213 68.2505L598.111 97.645H583.143L571.522 78.2114H571.375L564.49 85.9751ZM307.715 41.9322C309.929 41.9322 311.833 41.1509 313.428 39.5884C315.023 38.0259 315.82 36.1379 315.82 33.9243C315.82 31.7433 315.023 29.8716 313.428 28.3091C311.833 26.7466 309.929 25.9654 307.715 25.9654C305.469 25.9654 303.556 26.7466 301.978 28.3091C300.399 29.8716 299.609 31.7433 299.609 33.9243C299.609 35.3892 299.968 36.732 300.684 37.9527C301.4 39.1734 302.385 40.1418 303.638 40.8579C304.891 41.5741 306.25 41.9322 307.715 41.9322ZM314.258 97.645V47.8169H301.172V97.645H314.258ZM474.543 95.3257C470.604 97.4253 466.128 98.4751 461.115 98.4751C458.055 98.4751 455.175 98.0682 452.473 97.2544C449.771 96.4406 447.37 95.285 445.271 93.7876C443.171 92.2902 441.356 90.508 439.826 88.4409C438.296 86.3739 437.133 84.0545 436.335 81.4829C435.538 78.9113 435.139 76.1769 435.139 73.2798C435.139 69.6665 435.765 66.2974 437.019 63.1724C438.272 60.0474 440.022 57.37 442.268 55.1402C444.514 52.9103 447.264 51.1607 450.52 49.8911C453.775 48.6216 457.307 47.9868 461.115 47.9868C464.859 47.9868 468.342 48.6053 471.565 49.8423C474.787 51.0793 477.538 52.7964 479.817 54.9937C482.095 57.1909 483.877 59.8602 485.163 63.0015C486.449 66.1428 487.092 69.5689 487.092 73.2798C487.092 78.1952 485.985 82.5734 483.772 86.4146C481.558 90.2557 478.482 93.2261 474.543 95.3257ZM461.115 86.7564C457.404 86.7564 454.353 85.4624 451.96 82.8745C449.568 80.2866 448.371 77.0884 448.371 73.2798C448.371 69.3736 449.551 66.1428 451.911 63.5874C454.271 61.0321 457.339 59.7544 461.115 59.7544C464.761 59.7544 467.789 61.0158 470.197 63.5386C472.606 66.0614 473.811 69.3085 473.811 73.2798C473.811 77.1861 472.59 80.4087 470.149 82.9478C467.707 85.4868 464.696 86.7564 461.115 86.7564ZM532.358 95.3257C528.419 97.4253 523.943 98.4751 518.93 98.4751C515.87 98.4751 512.989 98.0682 510.287 97.2544C507.585 96.4406 505.185 95.285 503.085 93.7876C500.985 92.2902 499.171 90.508 497.641 88.4409C496.111 86.3739 494.947 84.0545 494.15 81.4829C493.352 78.9113 492.953 76.1769 492.953 73.2798C492.953 69.6665 493.58 66.2974 494.833 63.1724C496.086 60.0474 497.836 57.37 500.082 55.1402C502.328 52.9103 505.079 51.1607 508.334 49.8911C511.589 48.6216 515.121 47.9868 518.93 47.9868C522.673 47.9868 526.156 48.6053 529.379 49.8423C532.602 51.0793 535.352 52.7964 537.631 54.9937C539.91 57.1909 541.692 59.8602 542.978 63.0015C544.263 66.1428 544.906 69.5689 544.906 73.2798C544.906 78.1952 543.8 82.5734 541.586 86.4146C539.373 90.2557 536.296 93.2261 532.358 95.3257ZM518.93 86.7564C515.219 86.7564 512.167 85.4624 509.775 82.8745C507.382 80.2866 506.186 77.0884 506.186 73.2798C506.186 69.3736 507.366 66.1428 509.726 63.5874C512.086 61.0321 515.154 59.7544 518.93 59.7544C522.576 59.7544 525.603 61.0158 528.012 63.5386C530.421 66.0614 531.625 69.3085 531.625 73.2798C531.625 77.1861 530.404 80.4087 527.963 82.9478C525.522 85.4868 522.511 86.7564 518.93 86.7564Z" fill="#DB631A"/>
<path d="M334.385 23.5239H320.807V87.0429C320.807 94.3899 326.852 98.4819 333.827 98.4819C338.105 98.4819 340.151 97.7379 341.732 96.9939V85.8339C340.709 86.3919 339.779 86.7639 338.291 86.7639C335.966 86.7639 334.385 85.2759 334.385 82.7649V23.5239Z" fill="#DB631A"/>
<path d="M361.385 23.5239H347.807V87.0429C347.807 94.3899 353.852 98.4819 360.827 98.4819C365.105 98.4819 367.151 97.7379 368.732 96.9939V85.8339C367.709 86.3919 366.779 86.7639 365.291 86.7639C362.966 86.7639 361.385 85.2759 361.385 82.7649V23.5239Z" fill="#DB631A"/>
</g>
<path d="M47.8219 54.9577L37.285 95.1407C36.8662 96.738 35.2318 97.6933 33.6346 97.2744C33.128 97.1416 32.6651 96.878 32.2924 96.51L2.12778 66.7297C0.952773 65.5696 0.940636 63.6766 2.10068 62.5015C2.48226 62.1151 2.96185 61.8398 3.488 61.7053L44.1895 51.3026C45.7893 50.8937 47.4177 51.8592 47.8266 53.459C47.9523 53.9508 47.9507 54.4666 47.8219 54.9577Z" fill="#FF9C60"/>
<path d="M74.7974 27.9875L58.7693 89.0229C58.3499 90.62 56.7152 91.5747 55.1181 91.1553C54.6119 91.0224 54.1494 90.7589 53.777 90.3911L7.98216 45.1798C6.80714 44.0197 6.79501 42.1266 7.95505 40.9515C8.33638 40.5654 8.8156 40.2902 9.34136 40.1557L71.1643 24.3317C72.764 23.9222 74.3927 24.8871 74.8021 26.4868C74.9282 26.9793 74.9266 27.4958 74.7974 27.9875Z" fill="#DB631A"/>
<path opacity="0.2" d="M41.768 78.5701L20.4567 57.2588L44.1209 51.2744C45.7217 50.8695 47.3476 51.8391 47.7525 53.4399C47.8741 53.921 47.8741 54.4248 47.7525 54.906L41.768 78.5701Z" fill="black"/>
<path fill-rule="evenodd" clip-rule="evenodd" d="M269.807 97.645C273.768 97.645 277.28 97.1372 280.344 96.1216C283.408 95.106 285.913 93.6841 287.86 91.856C289.806 90.0279 291.279 87.8781 292.277 85.4068C293.276 82.9354 293.776 80.2101 293.776 77.231C293.776 72.3898 292.489 68.3527 289.916 65.1197C287.343 61.8866 283.687 59.6776 278.947 58.4927V58.2896C281.52 57.3078 283.653 55.9113 285.346 54.1001C287.039 52.2889 288.24 50.3592 288.951 48.3111C289.662 46.2629 290.018 44.0877 290.018 41.7857C290.018 35.9289 287.961 31.4601 283.848 28.3794C279.735 25.2987 273.751 23.7583 265.897 23.7583H240.127V97.645H269.807ZM264.068 54.0239H253.608V36.7075H263.104C265.88 36.7075 268.182 37.0715 270.01 37.7993C271.838 38.5272 273.158 39.5174 273.971 40.77C274.783 42.0226 275.19 43.5292 275.19 45.2896C275.19 47.2531 274.656 48.9035 273.59 50.2407C272.524 51.578 271.178 52.5428 269.553 53.1353C267.928 53.7277 266.1 54.0239 264.068 54.0239ZM253.608 84.7974H265.389C268.029 84.7974 270.323 84.4504 272.27 83.7564C274.216 83.0624 275.748 82.0129 276.865 80.6079C277.983 79.203 278.541 77.468 278.541 75.4029C278.541 72.4237 277.432 70.0793 275.215 68.3697C272.998 66.66 269.773 65.8052 265.541 65.8052H253.608V84.7974Z" fill="#DB631A"/>
<path fill-rule="evenodd" clip-rule="evenodd" d="M404.807 97.645C408.768 97.645 412.28 97.1372 415.344 96.1216C418.408 95.106 420.913 93.6841 422.859 91.856C424.806 90.0279 426.279 87.8781 427.277 85.4068C428.276 82.9354 428.776 80.2101 428.776 77.231C428.776 72.3898 427.489 68.3527 424.916 65.1197C422.343 61.8866 418.687 59.6776 413.947 58.4927V58.2896C416.52 57.3078 418.653 55.9113 420.346 54.1001C422.039 52.2889 423.24 50.3592 423.951 48.3111C424.662 46.2629 425.018 44.0877 425.018 41.7857C425.018 35.9289 422.961 31.4601 418.848 28.3794C414.734 25.2987 408.751 23.7583 400.897 23.7583H375.114V97.645H404.807ZM399.068 54.0239H388.608V36.7075H398.104C400.88 36.7075 403.182 37.0715 405.01 37.7993C406.838 38.5272 408.158 39.5174 408.971 40.77C409.783 42.0226 410.19 43.5292 410.19 45.2896C410.19 47.2531 409.656 48.9035 408.59 50.2407C407.524 51.578 406.178 52.5428 404.553 53.1353C402.928 53.7277 401.1 54.0239 399.068 54.0239ZM388.608 84.7974H400.389C403.029 84.7974 405.323 84.4504 407.27 83.7564C409.216 83.0624 410.748 82.0129 411.865 80.6079C412.983 79.203 413.541 77.468 413.541 75.4029C413.541 72.4237 412.432 70.0793 410.215 68.3697C407.998 66.66 404.773 65.8052 400.541 65.8052H388.608V84.7974Z" fill="#DB631A"/>
<mask id="mask1_411_755" style="mask-type:luminance" maskUnits="userSpaceOnUse" x="94" y="19" width="136" height="105">
<path d="M229.111 19.645H94.1115V123.645H229.111V19.645Z" fill="white"/>
</mask>
<g mask="url(#mask1_411_755)">
<path d="M203.544 123.645C219.566 123.645 228.706 116.969 228.706 100.537V47.645H213.306V72.3661C213.306 78.4256 211.457 84.2072 205.706 84.2072C199.955 84.2072 198.003 78.9391 198.003 72.3661V47.645H183.111V80.5099C183.111 93.5531 190.927 97.5586 203.138 97.6613C209.198 97.7122 211.56 97.3746 214.333 94.3962V100.229C214.333 108.137 211.555 110.705 203.544 110.705C196.766 110.705 187.111 110.705 187.111 110.705V123.645C187.111 123.645 197.074 123.645 203.544 123.645Z" fill="white"/>
</g>
<path d="M159.541 47.7915C152.559 47.7915 147.041 50.1353 143.037 54.8228H142.793C139.912 50.1353 135.225 47.7915 128.779 47.7915C126.24 47.7915 123.75 48.3775 121.406 49.4517C119.014 50.5747 116.914 52.1861 115.108 54.2368H114.863V48.7193H99.2384V97.645H114.863V73.1333C114.863 69.4712 115.596 66.6392 117.158 64.6861C118.721 62.7329 120.723 61.7564 123.262 61.7564C128.047 61.7564 130.44 65.4673 130.44 72.7915V97.645H146.016V73.1333C146.016 69.52 146.748 66.688 148.311 64.7349C149.824 62.7818 151.777 61.7564 154.17 61.7564C158.906 61.7564 161.299 65.4673 161.299 72.7915V97.645H176.875V69.1294C176.875 65.3697 176.436 62.0982 175.606 59.315C174.776 56.5806 173.604 54.3345 172.041 52.6743C170.479 51.0142 168.623 49.7935 166.572 49.0122C164.522 48.231 162.178 47.7915 159.541 47.7915Z" fill="white"/>
</svg>
